<?xml version="1.0" encoding="UTF-8"?>
<svg version="1.1" xmlns="http://www.w3.org/2000/svg" width="200" height="200">
<path d="M0 0 C0.63647461 0.20898926 1.27294922 0.41797852 1.92871094 0.63330078 C26.94152032 9.04440923 46.6387059 27.28731179 59.21484375 50.21875 C70.73335702 73.51770266 73.26861487 102.32295002 65 127 C64.68651611 127.95471191 64.68651611 127.95471191 64.36669922 128.92871094 C55.95559077 153.94152032 37.71268821 173.6387059 14.78125 186.21484375 C-8.51770266 197.73335702 -37.32295002 200.26861487 -62 192 C-62.95471191 191.68651611 -62.95471191 191.68651611 -63.92871094 191.36669922 C-88.94152032 182.95559077 -108.6387059 164.71268821 -121.21484375 141.78125 C-132.73335702 118.48229734 -135.26861487 89.67704998 -127 65 C-126.79101074 64.36352539 -126.58202148 63.72705078 -126.36669922 63.07128906 C-117.95559077 38.05847968 -99.71268821 18.3612941 -76.78125 5.78515625 C-53.48229734 -5.73335702 -24.67704998 -8.26861487 0 0 Z " fill="#946E52" transform="translate(131,4)"/>
<path d="M0 0 C0.63647461 0.20898926 1.27294922 0.41797852 1.92871094 0.63330078 C26.94152032 9.04440923 46.6387059 27.28731179 59.21484375 50.21875 C70.73335702 73.51770266 73.26861487 102.32295002 65 127 C64.68651611 127.95471191 64.68651611 127.95471191 64.36669922 128.92871094 C55.81455807 154.36092094 36.75586378 175.19685267 12.85888672 187.15527344 C7.43232633 189.62124388 1.71310411 191.33567835 -4 193 C-3.54124796 184.33116839 -2.44348421 175.87466802 -1.08227539 167.30883789 C-0.370204 162.75529461 0.16319516 158.29736994 0.375 153.6875 C1.2221341 142.25918147 6.45805302 131.51643801 11.23266602 121.25341797 C12.78543099 117.89257652 14.16591184 114.66281589 15.11328125 111.078125 C16 108 16 108 18 106.25 C20.77159015 103.13196108 20.77134578 100.26368991 21.36328125 96.20703125 C22.08868635 92.55330371 23.29196437 89.28884782 24.625 85.8125 C26.59241959 80.51961898 27.74089926 76.60966582 27 71 C26.34 70.01 25.68 69.02 25 68 C22.03 68.495 22.03 68.495 19 69 C18.96132813 67.43765625 18.96132813 67.43765625 18.921875 65.84375 C18.54902057 55.43683268 16.89181769 45.99358393 14 36 C13.34 36 12.68 36 12 36 C11.08514127 34.53622604 10.2441948 33.02605511 9.4375 31.5 C3.13107207 20.77756019 -6.04580505 16.07257562 -17 11 C-17.97453125 10.44828125 -18.9490625 9.8965625 -19.953125 9.328125 C-29.14273889 5.32239587 -40.48983156 7.89711103 -49.5234375 11.125 C-52 12 -52 12 -54 12 C-54 12.66 -54 13.32 -54 14 C-60.6201232 16.92813142 -60.6201232 16.92813142 -63.3125 17.4375 C-65.22766928 17.87357398 -65.22766928 17.87357398 -66.25 20.0625 C-66.62125 21.0215625 -66.62125 21.0215625 -67 22 C-67.66 22 -68.32 22 -69 22 C-69.495 23.485 -69.495 23.485 -70 25 C-70.66 25 -71.32 25 -72 25 C-72.268125 25.70511719 -72.53625 26.41023438 -72.8125 27.13671875 C-74.47627835 31.14839483 -76.53462002 34.93176839 -78.5625 38.76953125 C-81.7558832 45.94596577 -82.35468447 52.75095476 -82.625 60.5 C-82.66367188 61.4178125 -82.70234375 62.335625 -82.7421875 63.28125 C-82.83549119 65.52053854 -82.91878734 67.76024036 -83 70 C-85.64 69.34 -88.28 68.68 -91 68 C-92.35809711 72.07429132 -92.89248944 75.83063209 -91.2109375 79.91796875 C-90.5134058 81.25179845 -89.80456623 82.57976109 -89.0859375 83.90234375 C-86.07418144 89.72001642 -84.68663966 95.53562788 -84.40625 102.0546875 C-84.16632446 104.10873145 -84.16632446 104.10873145 -82.5078125 105.453125 C-80.4672407 107.54656136 -80.54132096 108.99502132 -80.375 111.875 C-80.12746357 115.33040652 -79.78942451 118.61675208 -79 122 C-78.01 122.33 -77.02 122.66 -76 123 C-73.9090667 126.631621 -74.00120983 129.62153371 -74.12670898 133.72387695 C-73.98006628 136.35807718 -73.32656045 138.52767668 -72.53515625 141.04296875 C-70.85867483 146.96518749 -70.48917613 152.55868862 -70.375 158.6875 C-70.20851725 166.52954726 -70.20851725 166.52954726 -69.48046875 174.33203125 C-69.05065624 177.61328283 -68.8962119 180.69695188 -68.9375 184 C-68.94652344 184.94875 -68.95554688 185.8975 -68.96484375 186.875 C-68.97644531 187.57625 -68.98804688 188.2775 -69 189 C-91.95544865 181.2804686 -109.79528703 162.60376821 -121.21484375 141.78125 C-132.73335702 118.48229734 -135.26861487 89.67704998 -127 65 C-126.79101074 64.36352539 -126.58202148 63.72705078 -126.36669922 63.07128906 C-117.95559077 38.05847968 -99.71268821 18.3612941 -76.78125 5.78515625 C-53.48229734 -5.73335702 -24.67704998 -8.26861487 0 0 Z " fill="#2D637B" transform="translate(131,4)"/>
<path d="M0 0 C2.89339934 2.78433551 5.37469712 5.68748584 7.8125 8.875 C15.53293245 18.58272895 23.52620651 23.51812636 36 25 C50.73489029 26.03051947 63.41610692 23.96081401 75 14 C77.53607998 11.30075064 77.53607998 11.30075064 79 9 C78.125 16.75 78.125 16.75 77 19 C76.69273616 21.4794062 76.42864495 23.95147519 76.1875 26.4375 C74.88966424 39.01672687 72.91180078 51.50233289 71 64 C61.98110279 66.44875933 53.58620467 67.51731881 44.25 67.4375 C43.03223877 67.43210205 41.81447754 67.4267041 40.55981445 67.42114258 C28.16955011 67.21322742 17.33614161 65.06570221 6 60 C4.6449147 48.72516409 3.69804293 37.54513004 3.51782227 26.18334961 C3.35311615 20.26497984 2.41239664 15.08718209 0.65478516 9.4284668 C-0.22761697 6.15581431 -0.2243917 3.36587551 0 0 Z " fill="#FBFBFB" transform="translate(56,133)"/>
<path d="M0 0 C1.2375 0.495 1.2375 0.495 2.5 1 C6.5873983 2.16782809 9.76923344 2.1458885 14 2 C14 2.66 14 3.32 14 4 C14.99 3.67 15.98 3.34 17 3 C17.99 3.33 18.98 3.66 20 4 C20.33 3.34 20.66 2.68 21 2 C21 3.32 21 4.64 21 6 C23.31 6.33 25.62 6.66 28 7 C27.505 5.515 27.505 5.515 27 4 C27.99 4 28.98 4 30 4 C30.66 2.68 31.32 1.36 32 0 C33.32 0 34.64 0 36 0 C35.67 1.32 35.34 2.64 35 4 C37.47266765 3.65555119 37.47266765 3.65555119 40 3 C40.33 2.34 40.66 1.68 41 1 C41.66 1 42.32 1 43 1 C42.79375 1.61875 42.5875 2.2375 42.375 2.875 C42.189375 3.926875 42.189375 3.926875 42 5 C42.66 5.66 43.32 6.32 44 7 C42 9 42 9 40.08984375 9.1953125 C39.37957031 9.17210938 38.66929688 9.14890625 37.9375 9.125 C35.46916449 9.03638045 35.46916449 9.03638045 33 9 C33.763125 9.886875 34.52625 10.77375 35.3125 11.6875 C37.51546225 14.31864364 39.24541036 17.04909925 41 20 C41.46792969 20.44988281 41.93585938 20.89976563 42.41796875 21.36328125 C44.25205269 23.26076562 45.40804372 25.19467337 46.6875 27.5 C47.12449219 28.2734375 47.56148437 29.046875 48.01171875 29.84375 C49 32 49 32 49 35 C46 36 46 36 43 35 C43.20625 36.051875 43.4125 37.10375 43.625 38.1875 C43.99963104 41.99624887 43.71630067 43.66835752 42 47 C41.34 47 40.68 47 40 47 C40 46.01 40 45.02 40 44 C37.813347 43.80286762 35.62560925 43.61775092 33.4375 43.4375 C32.21933594 43.33308594 31.00117187 43.22867188 29.74609375 43.12109375 C26.066258 42.89380953 26.066258 42.89380953 22.71875 43.46875 C17.81410375 44.16941375 13.0088153 44.10645222 8.0625 44.0625 C7.09248047 44.05798828 6.12246094 44.05347656 5.12304688 44.04882812 C2.7486324 44.0371315 0.37434979 44.02074086 -2 44 C-2 44.66 -2 45.32 -2 46 C4.00860549 47.05838127 9.84627561 47.11662571 15.9375 47.0625 C16.90751953 47.05798828 17.87753906 47.05347656 18.87695312 47.04882812 C21.2513676 47.0371315 23.62565021 47.02074086 26 47 C26 47.66 26 48.32 26 49 C26.66 49 27.32 49 28 49 C27.67 50.65 27.34 52.3 27 54 C20.84098757 55.23180249 15.21324498 54.73030908 9 54 C9.33 54.66 9.66 55.32 10 56 C15.61 56.33 21.22 56.66 27 57 C27.66 58.32 28.32 59.64 29 61 C29.99 61 30.98 61 32 61 C32.5 63.6875 32.5 63.6875 32 67 C26.58639403 72.25463275 19.76578547 73.13056438 12.5625 73.75 C11.08426758 73.94722656 11.08426758 73.94722656 9.57617188 74.1484375 C3.70060315 74.69355322 0.50937177 74.18570113 -4.22265625 70.515625 C-5.50635042 69.3707277 -6.77504394 68.207536 -8 67 C-7.67 66.01 -7.34 65.02 -7 64 C-7.66 63.01 -8.32 62.02 -9 61 C-9 60.01 -9 59.02 -9 58 C-9.66 58 -10.32 58 -11 58 C-11.33 55.03 -11.66 52.06 -12 49 C-10.515 48.505 -10.515 48.505 -9 48 C-8.67 47.01 -8.34 46.02 -8 45 C-8.99 44.67 -9.98 44.34 -11 44 C-11 42.35 -11 40.7 -11 39 C-12.98 39.495 -12.98 39.495 -15 40 C-15.22174933 38.54364629 -15.42698698 37.08477044 -15.625 35.625 C-15.74101563 34.81289062 -15.85703125 34.00078125 -15.9765625 33.1640625 C-15.98429687 32.44992188 -15.99203125 31.73578125 -16 31 C-15.34 30.34 -14.68 29.68 -14 29 C-13.09282434 27.4770445 -12.22072673 25.93291765 -11.375 24.375 C-10.92898437 23.55773437 -10.48296875 22.74046875 -10.0234375 21.8984375 C-9.51683594 20.95871094 -9.51683594 20.95871094 -9 20 C-10.65 20.33 -12.3 20.66 -14 21 C-13.67 19.35 -13.34 17.7 -13 16 C-11.68 16.33 -10.36 16.66 -9 17 C-9.33 16.01 -9.66 15.02 -10 14 C-9.01 13.67 -8.02 13.34 -7 13 C-5.33289654 11.50014391 -5.33289654 11.50014391 -4 10 C-7.465 8.02 -7.465 8.02 -11 6 C-10.67 4.35 -10.34 2.7 -10 1 C-6.125 2.75 -6.125 2.75 -5 5 C-3.35 5 -1.7 5 0 5 C-0.66 4.34 -1.32 3.68 -2 3 C-1.34 2.01 -0.68 1.02 0 0 Z " fill="#BD9988" transform="translate(83,79)"/>
<path d="M0 0 C0.33 0 0.66 0 1 0 C2.50974035 7.09038772 3.28307925 13.75002578 3 21 C3.66 21 4.32 21 5 21 C8.06067105 35.82791122 9.82003308 50.43352687 10.77783203 65.53710938 C11.17149435 71.6730504 11.61833954 77.805048 12.0625 83.9375 C12.14193848 85.09918701 12.22137695 86.26087402 12.30322266 87.45776367 C12.37976074 88.5326001 12.45629883 89.60743652 12.53515625 90.71484375 C12.600979 91.66480225 12.66680176 92.61476074 12.73461914 93.59350586 C12.93016859 96.14106373 12.93016859 96.14106373 14 99 C11.42573716 100.39489126 8.84296943 101.76570979 6.25 103.125 C5.52039063 103.52332031 4.79078125 103.92164063 4.0390625 104.33203125 C2.97558594 104.88310547 2.97558594 104.88310547 1.890625 105.4453125 C1.24125977 105.79094238 0.59189453 106.13657227 -0.07714844 106.49267578 C-2 107 -2 107 -4.14550781 106.27001953 C-11.64294752 101.13551698 -14.96548097 82.46702059 -16.53271484 74.18481445 C-20.25689212 48.80242542 -15.56022177 23.32642904 -1.41796875 1.87890625 C-0.95003906 1.25886719 -0.48210938 0.63882813 0 0 Z " fill="#D81E1C" transform="translate(17,43)"/>
<path d="M0 0 C0.46148437 0.36351562 0.92296875 0.72703125 1.3984375 1.1015625 C11.44847885 8.8476418 22.48773625 14.33900988 33.86914062 19.8515625 C35.42084961 20.61339844 35.42084961 20.61339844 37.00390625 21.390625 C37.94049072 21.84469727 38.8770752 22.29876953 39.84204102 22.76660156 C42 24 42 24 43 26 C27.93997002 47.42850011 10.25243144 61.64354938 -15 69 C-14.54124796 60.33116839 -13.44348421 51.87466802 -12.08227539 43.30883789 C-11.370204 38.75529461 -10.83680484 34.29736994 -10.625 29.6875 C-10.01491944 20.90981036 -6.41320465 6.41320465 0 0 Z " fill="#343637" transform="translate(142,128)"/>
<path d="M0 0 C0.33 0 0.66 0 1 0 C2.46773449 14.98962886 3.78086325 29.98815373 5 45 C7.21052126 43.44052267 9.41841611 41.87753183 11.625 40.3125 C12.24246094 39.87744141 12.85992187 39.44238281 13.49609375 38.99414062 C16.55998826 36.81716295 19.47006188 34.61151665 22.2734375 32.10546875 C23.17320313 31.41066406 24.07296875 30.71585938 25 30 C28 31 28 31 29.1875 33.0625 C30.02348362 36.08490233 29.96843894 38.61366135 29.87329102 41.72387695 C30.01993372 44.35807718 30.67343955 46.52767668 31.46484375 49.04296875 C33.14132517 54.96518749 33.51082387 60.55868862 33.625 66.6875 C33.79148275 74.52954726 33.79148275 74.52954726 34.51953125 82.33203125 C34.94934376 85.61328283 35.1037881 88.69695188 35.0625 92 C35.05347656 92.94875 35.04445312 93.8975 35.03515625 94.875 C35.02355469 95.57625 35.01195312 96.2775 35 97 C14.39786087 90.07184702 -4.30822422 73.38355156 -14 54 C-8.39 51.36 -2.78 48.72 3 46 C2.67 45.01 2.34 44.02 2 43 C1.51158842 38.7832864 1.24425682 34.54591481 0.9375 30.3125 C0.84807129 29.09908936 0.75864258 27.88567871 0.66650391 26.63549805 C0.04419956 17.73417523 -0.24587945 8.91996013 0 0 Z " fill="#373333" transform="translate(27,96)"/>
<path d="M0 0 C1.2375 0.495 1.2375 0.495 2.5 1 C6.5873983 2.16782809 9.76923344 2.1458885 14 2 C14 2.66 14 3.32 14 4 C14.99 3.67 15.98 3.34 17 3 C17.99 3.33 18.98 3.66 20 4 C20.33 3.34 20.66 2.68 21 2 C21 3.32 21 4.64 21 6 C23.31 6.33 25.62 6.66 28 7 C27.505 5.515 27.505 5.515 27 4 C27.99 4 28.98 4 30 4 C30.66 2.68 31.32 1.36 32 0 C33.32 0 34.64 0 36 0 C35.67 1.32 35.34 2.64 35 4 C37.47266765 3.65555119 37.47266765 3.65555119 40 3 C40.33 2.34 40.66 1.68 41 1 C41.66 1 42.32 1 43 1 C42.79375 1.61875 42.5875 2.2375 42.375 2.875 C42.189375 3.926875 42.189375 3.926875 42 5 C42.66 5.66 43.32 6.32 44 7 C42 9 42 9 40.08984375 9.1953125 C39.37957031 9.17210938 38.66929688 9.14890625 37.9375 9.125 C35.46916449 9.03638045 35.46916449 9.03638045 33 9 C33.763125 9.886875 34.52625 10.77375 35.3125 11.6875 C37.51546225 14.31864364 39.24541036 17.04909925 41 20 C42.58245275 21.75149165 42.58245275 21.75149165 44 23 C43.13375 23.19722656 43.13375 23.19722656 42.25 23.3984375 C39.3799544 24.16577608 36.72971829 25.31429963 34 26.4765625 C31.64347347 27.09330968 30.28265884 26.76428309 28 26 C28 25.34 28 24.68 28 24 C28.99 23.34 29.98 22.68 31 22 C29.329375 21.814375 29.329375 21.814375 27.625 21.625 C24 21 24 21 22 19 C19.33050591 18.75684344 19.33050591 18.75684344 16.375 18.875 C15.37210938 18.89304687 14.36921875 18.91109375 13.3359375 18.9296875 C12.56507812 18.95289062 11.79421875 18.97609375 11 19 C10.67 19.66 10.34 20.32 10 21 C7.36 21 4.72 21 2 21 C2.33 21.66 2.66 22.32 3 23 C4.85534163 23.64826081 4.85534163 23.64826081 7 24.0625 C10.90660592 24.90660592 10.90660592 24.90660592 12 26 C13.4346959 26.09894455 14.87440397 26.12970735 16.3125 26.125 C17.09238281 26.12757812 17.87226562 26.13015625 18.67578125 26.1328125 C20.91251539 26.00499912 22.85266979 25.61913869 25 25 C24.7215625 25.8971875 24.7215625 25.8971875 24.4375 26.8125 C23.77906313 29.16408762 23.77906313 29.16408762 25 32 C21.875 31.47916667 18.75 30.95833333 15.625 30.4375 C14.325625 30.2209375 14.325625 30.2209375 13 30 C13 30.66 13 31.32 13 32 C11.68 31.67 10.36 31.34 9 31 C9 30.34 9 29.68 9 29 C5.37 28.34 1.74 27.68 -2 27 C-7.06609603 32.06609603 -8.48519124 37.07867866 -10 44 C-10.33 44 -10.66 44 -11 44 C-11 42.35 -11 40.7 -11 39 C-12.98 39.495 -12.98 39.495 -15 40 C-15.22174933 38.54364629 -15.42698698 37.08477044 -15.625 35.625 C-15.74101563 34.81289062 -15.85703125 34.00078125 -15.9765625 33.1640625 C-15.98429687 32.44992188 -15.99203125 31.73578125 -16 31 C-15.34 30.34 -14.68 29.68 -14 29 C-13.09282434 27.4770445 -12.22072673 25.93291765 -11.375 24.375 C-10.92898437 23.55773437 -10.48296875 22.74046875 -10.0234375 21.8984375 C-9.51683594 20.95871094 -9.51683594 20.95871094 -9 20 C-10.65 20.33 -12.3 20.66 -14 21 C-13.67 19.35 -13.34 17.7 -13 16 C-11.68 16.33 -10.36 16.66 -9 17 C-9.33 16.01 -9.66 15.02 -10 14 C-9.01 13.67 -8.02 13.34 -7 13 C-5.33289654 11.50014391 -5.33289654 11.50014391 -4 10 C-7.465 8.02 -7.465 8.02 -11 6 C-10.67 4.35 -10.34 2.7 -10 1 C-6.125 2.75 -6.125 2.75 -5 5 C-3.35 5 -1.7 5 0 5 C-0.66 4.34 -1.32 3.68 -2 3 C-1.34 2.01 -0.68 1.02 0 0 Z " fill="#B37D5B" transform="translate(83,79)"/>
<path d="M0 0 C1.0466943 2.72140517 1.04740289 3.86281283 0.078125 6.66796875 C-1.1108899 10.34271409 -1.53230386 13.86700775 -1.875 17.6875 C-3.12039967 30.18722413 -5.10102358 42.58616722 -7 55 C-9.06507362 55.50161213 -11.13181 55.99638203 -13.19921875 56.48828125 C-14.34994873 56.76454346 -15.50067871 57.04080566 -16.6862793 57.32543945 C-20.61091014 58.12436047 -24.01720626 58.23428198 -28 58 C-30.30006194 52.63318882 -32.01937648 47.9363689 -31 42 C-29.65679469 39.08276943 -27.89877684 36.58131013 -26 34 C-25.52304688 33.32066406 -25.04609375 32.64132813 -24.5546875 31.94140625 C-23.38640541 30.28244568 -22.19545821 28.63948555 -21 27 C-21.40992187 26.52949219 -21.81984375 26.05898437 -22.2421875 25.57421875 C-22.78101562 24.95160156 -23.31984375 24.32898438 -23.875 23.6875 C-24.67550781 22.76517578 -24.67550781 22.76517578 -25.4921875 21.82421875 C-27 20 -27 20 -29 17 C-27.96101563 16.72027344 -26.92203125 16.44054687 -25.8515625 16.15234375 C-11.67281503 12.17679921 -11.67281503 12.17679921 -1.23828125 2.28125 C-0.82964844 1.5284375 -0.42101562 0.775625 0 0 Z " fill="#FAFAFA" transform="translate(134,142)"/>
<path d="M0 0 C1.8125 1.5 1.8125 1.5 3 3 C2.67 3.99 2.34 4.98 2 6 C0.68 5.67 -0.64 5.34 -2 5 C-2 5.99 -2 6.98 -2 8 C-1.505 8.495 -1.01 8.99 -0.5 9.5 C-0.005 9.995 0.49 10.49 1 11 C1 11.99 1 12.98 1 14 C1.99 13.67 2.98 13.34 4 13 C7.60454075 13.8318171 8.9331844 14.92263456 11.375 17.75 C13.23762639 21.47525278 13.12411206 23.06560779 12 27 C10.72125 26.855625 9.4425 26.71125 8.125 26.5625 C7.30515625 26.47484375 6.4853125 26.3871875 5.640625 26.296875 C3.89831834 26.10099437 2.15836868 25.88268169 0.421875 25.640625 C-4.96228292 24.94696048 -8.95358559 24.85258961 -14 27 C-14.495 28.485 -14.495 28.485 -15 30 C-14.01 30.33 -13.02 30.66 -12 31 C-12 31.33 -12 31.66 -12 32 C-13.97986082 31.88652381 -15.95891598 31.7589065 -17.9375 31.625 C-19.59072266 31.52058594 -19.59072266 31.52058594 -21.27734375 31.4140625 C-22.17582031 31.27742188 -23.07429688 31.14078125 -24 31 C-24.33 30.34 -24.66 29.68 -25 29 C-24.67 28.34 -24.34 27.68 -24 27 C-24.66 27 -25.32 27 -26 27 C-26 26.34 -26 25.68 -26 25 C-26.763125 25.04125 -27.52625 25.0825 -28.3125 25.125 C-31 25 -31 25 -34 23 C-34 22.34 -34 21.68 -34 21 C-36.97 21 -39.94 21 -43 21 C-43 21.66 -43 22.32 -43 23 C-44.32 23 -45.64 23 -47 23 C-47 22.34 -47 21.68 -47 21 C-47.66 21 -48.32 21 -49 21 C-49 21.66 -49 22.32 -49 23 C-49.99 22.67 -50.98 22.34 -52 22 C-51.3566152 20.686298 -50.71021785 19.37407102 -50.0625 18.0625 C-49.70285156 17.33160156 -49.34320313 16.60070312 -48.97265625 15.84765625 C-48 14 -48 14 -47 13 C-44.73562199 13.00902143 -42.48732401 13.13262375 -40.2265625 13.2578125 C-37.49515545 12.94154432 -36.69919031 12.09384096 -35 10 C-35.99 9.67 -36.98 9.34 -38 9 C-38 8.34 -38 7.68 -38 7 C-32.22192976 6.7641604 -27.48675196 7.13216954 -22 9 C-22 10.32 -22 11.64 -22 13 C-21.01 13.33 -20.02 13.66 -19 14 C-18.34 12.35 -17.68 10.7 -17 9 C-16.34 9 -15.68 9 -15 9 C-15 8.34 -15 7.68 -15 7 C-7.375 5.875 -7.375 5.875 -4 7 C-4.495 5.515 -4.495 5.515 -5 4 C-7.01508358 3.26676204 -7.01508358 3.26676204 -9 3 C-5.97244082 0.30883629 -4.06495202 -0.62537723 0 0 Z " fill="#B28974" transform="translate(119,48)"/>
<path d="M0 0 C0 0.33 0 0.66 0 1 C-2.97 1 -5.94 1 -9 1 C-9 1.66 -9 2.32 -9 3 C-2.99139451 4.05838127 2.84627561 4.11662571 8.9375 4.0625 C10.3925293 4.05573242 10.3925293 4.05573242 11.87695312 4.04882812 C14.2513676 4.0371315 16.62565021 4.02074086 19 4 C19 4.66 19 5.32 19 6 C19.66 6 20.32 6 21 6 C20.67 7.65 20.34 9.3 20 11 C13.84098757 12.23180249 8.21324498 11.73030908 2 11 C2.33 11.66 2.66 12.32 3 13 C8.61 13.33 14.22 13.66 20 14 C20.66 15.32 21.32 16.64 22 18 C22.99 18 23.98 18 25 18 C25.5 20.6875 25.5 20.6875 25 24 C19.58639403 29.25463275 12.76578547 30.13056438 5.5625 30.75 C4.08426758 30.94722656 4.08426758 30.94722656 2.57617188 31.1484375 C-3.29939685 31.69355322 -6.49062823 31.18570113 -11.22265625 27.515625 C-12.50635042 26.3707277 -13.77504394 25.207536 -15 24 C-14.67 23.01 -14.34 22.02 -14 21 C-14.66 20.01 -15.32 19.02 -16 18 C-16 17.01 -16 16.02 -16 15 C-16.66 15 -17.32 15 -18 15 C-18.33 12.03 -18.66 9.06 -19 6 C-18.01 5.67 -17.02 5.34 -16 5 C-15.26676204 2.98491642 -15.26676204 2.98491642 -15 1 C-13.25215171 0.63536268 -11.50159498 0.2836922 -9.75 -0.0625 C-8.28820312 -0.35833984 -8.28820312 -0.35833984 -6.796875 -0.66015625 C-4.131881 -0.98397535 -2.51128277 -0.85503199 0 0 Z " fill="#A27F6E" transform="translate(90,122)"/>
<path d="M0 0 C0.98226562 0.00257813 1.96453125 0.00515625 2.9765625 0.0078125 C3.95367187 0.00523437 4.93078125 0.00265625 5.9375 0 C8.6015625 0.1328125 8.6015625 0.1328125 11.6015625 1.1328125 C14.76238695 1.06089385 17.91048728 0.96117066 21.06445312 0.7421875 C23.03515625 0.6796875 23.03515625 0.6796875 26.6015625 1.1328125 C29.07421875 3.6484375 29.07421875 3.6484375 30.6015625 6.1328125 C29.8796875 7.1228125 29.1578125 8.1128125 28.4140625 9.1328125 C27.4755815 10.46545553 26.53813594 11.79882816 25.6015625 13.1328125 C25.12460938 13.78121094 24.64765625 14.42960938 24.15625 15.09765625 C20.74461897 20.02015245 19.98574348 23.15423615 20.6015625 29.1328125 C21.53439546 31.33348671 21.53439546 31.33348671 22.6015625 33.1328125 C22.6015625 34.4528125 22.6015625 35.7728125 22.6015625 37.1328125 C19.28908063 37.16169396 15.97663083 37.17957049 12.6640625 37.1953125 C11.71853516 37.20369141 10.77300781 37.21207031 9.79882812 37.22070312 C8.45014648 37.22553711 8.45014648 37.22553711 7.07421875 37.23046875 C5.82523804 37.23832397 5.82523804 37.23832397 4.55102539 37.24633789 C2.6015625 37.1328125 2.6015625 37.1328125 1.6015625 36.1328125 C1.91060681 32.19249756 2.26228059 29.64173537 4.4765625 26.3203125 C5.90838555 23.28702552 5.90838555 23.28702552 4.859375 20.81640625 C2.45554108 15.92661986 -0.42386663 11.36050205 -3.578125 6.921875 C-4.3984375 5.1328125 -4.3984375 5.1328125 -4.09375 2.96875 C-3.07620354 0.28197001 -2.95567777 0.16366945 0 0 Z " fill="#726D6C" transform="translate(83.3984375,162.8671875)"/>
<path d="M0 0 C7.29288382 7.29288382 6.74703655 22.26090709 7 32 C8.65 31.67 10.3 31.34 12 31 C14.41810428 33.41810428 14.99420417 34.96087814 15.5 38.375 C15.32043072 43.73215026 13.12681354 48.50610273 11.2265625 53.453125 C10.10015874 56.71036901 9.46895425 59.66028291 9 63.0625 C8.26400287 67.9172503 6.62481573 69.64704545 3 73 C2.50391054 74.92648074 2.01409371 76.85512414 1.57617188 78.7956543 C0.63394902 82.40045522 -0.93680259 85.69083363 -2.5 89.0625 C-4.30749767 92.98378678 -5.99385884 96.73151654 -7.03125 100.93359375 C-7.3509375 101.94550781 -7.670625 102.95742187 -8 104 C-9.485 104.495 -9.485 104.495 -11 105 C-11.78375 105.825 -12.5675 106.65 -13.375 107.5 C-16.0971156 110.09249105 -17.33929183 110.68622501 -21 111 C-21 109.68 -21 108.36 -21 107 C-21.66 107 -22.32 107 -23 107 C-22.70738281 106.42378906 -22.41476563 105.84757812 -22.11328125 105.25390625 C-21.41419328 103.83855972 -20.740668 102.40999139 -20.10546875 100.96484375 C-18.1077763 96.55291873 -16.61987435 94.05327749 -12 92 C-11.67 92.66 -11.34 93.32 -11 94 C-9.35 94 -7.7 94 -6 94 C-5.48201347 89.83760822 -5 85.76206749 -5 81.5625 C-5 79 -5 79 -4 77 C-3.34 77 -2.68 77 -2 77 C-2.03480469 76.0821875 -2.06960937 75.164375 -2.10546875 74.21875 C-2.13253906 72.9915625 -2.15960938 71.764375 -2.1875 70.5 C-2.22230469 69.2934375 -2.25710937 68.086875 -2.29296875 66.84375 C-2.04526343 63.59385626 -1.70848406 61.97555519 -0.50390625 59.1015625 C1.32410172 54.64163421 1.37869849 50.64488773 1.25 45.875 C1.24484375 45.10285156 1.2396875 44.33070312 1.234375 43.53515625 C1.1761256 39.26110685 0.83329366 35.20678897 0 31 C0.99 30.67 1.98 30.34 3 30 C2.58091715 26.76816603 2.13648866 23.54030402 1.6875 20.3125 C1.56955078 19.40048828 1.45160156 18.48847656 1.33007812 17.54882812 C0.63244683 12.62963307 -0.18092767 9.19140666 -3 5 C-2.67 4.34 -2.34 3.68 -2 3 C-1.34 3.66 -0.68 4.32 0 5 C0 3.35 0 1.7 0 0 Z " fill="#795D46" transform="translate(144,40)"/>
<path d="M0 0 C1.03060547 0.00386719 1.03060547 0.00386719 2.08203125 0.0078125 C6.90362688 0.15362688 6.90362688 0.15362688 9.1875 2.4375 C6.48716295 3.78766853 5.12168878 3.03767498 2.1875 2.4375 C-0.97945956 2.27025263 -0.97945956 2.27025263 -3.8125 2.4375 C-4.1425 2.7675 -4.4725 3.0975 -4.8125 3.4375 C-4.06484375 3.47488281 -3.3171875 3.51226562 -2.546875 3.55078125 C-1.06960937 3.64939453 -1.06960937 3.64939453 0.4375 3.75 C1.41203125 3.80800781 2.3865625 3.86601562 3.390625 3.92578125 C6.44091611 4.48386524 7.89461276 5.40119776 10.1875 7.4375 C7.8775 7.1075 5.5675 6.7775 3.1875 6.4375 C4.1775 8.7475 5.1675 11.0575 6.1875 13.4375 C4.8675 13.4375 3.5475 13.4375 2.1875 13.4375 C1.7028125 12.94636719 1.218125 12.45523437 0.71875 11.94921875 C-0.71523242 10.2309825 -0.71523242 10.2309825 -2.96875 10.14453125 C-3.7421875 10.17933594 -4.515625 10.21414062 -5.3125 10.25 C-6.0859375 10.27707031 -6.859375 10.30414063 -7.65625 10.33203125 C-8.3678125 10.36683594 -9.079375 10.40164062 -9.8125 10.4375 C-10.8025 10.4375 -11.7925 10.4375 -12.8125 10.4375 C-14.5086577 11.36872383 -16.20086939 12.30929029 -17.85546875 13.3125 C-19.79772606 14.4290072 -21.75982911 15.29468781 -23.8125 16.1875 C-27.94578018 18.19005823 -30.38129959 21.04299462 -33.171875 24.6328125 C-34.8125 26.4375 -34.8125 26.4375 -36.7265625 27.265625 C-39.94285368 29.07253016 -41.52106334 32.0153657 -43.4375 35.0625 C-43.83195312 35.65417969 -44.22640625 36.24585938 -44.6328125 36.85546875 C-49.09224073 43.83085818 -50.07541531 50.79059444 -50.4375 58.9375 C-50.49550781 60.02804688 -50.49550781 60.02804688 -50.5546875 61.140625 C-50.64759655 62.90589688 -50.7310657 64.67166157 -50.8125 66.4375 C-52.75 66.0625 -52.75 66.0625 -54.8125 65.4375 C-55.1425 64.7775 -55.4725 64.1175 -55.8125 63.4375 C-57.2975 63.9325 -57.2975 63.9325 -58.8125 64.4375 C-59.16662344 65.76546291 -59.49771554 67.09966607 -59.8125 68.4375 C-61.375 70.1875 -61.375 70.1875 -62.8125 71.4375 C-63.0625 64.8125 -63.0625 64.8125 -60.8125 61.4375 C-57.75 61.1875 -57.75 61.1875 -54.8125 61.4375 C-54.4825 61.7675 -54.1525 62.0975 -53.8125 62.4375 C-53.75642578 60.55417969 -53.75642578 60.55417969 -53.69921875 58.6328125 C-53.11504045 42.52848124 -50.38571823 27.61983498 -38.8125 15.4375 C-38.19375 14.73625 -37.575 14.035 -36.9375 13.3125 C-32.92234093 9.76971259 -29.31317728 7.4375 -23.8125 7.4375 C-23.8125 6.7775 -23.8125 6.1175 -23.8125 5.4375 C-15.8835912 2.2477091 -8.61979853 -0.04736153 0 0 Z " fill="#584129" transform="translate(100.8125,10.5625)"/>
<path d="M0 0 C1.65 0 3.3 0 5 0 C4.67 0.969375 4.34 1.93875 4 2.9375 C2.9084894 6.66682789 2.90568827 10.02820307 3.125 13.88671875 C2.89115469 17.84016606 1.22617005 19.77934629 -1.5625 22.5 C-3.86376327 24.86027002 -4.64621864 25.81596775 -5 29 C-5.66 29 -6.32 29 -7 29 C-7 30.32 -7 31.64 -7 33 C-10.37097383 34.49821059 -12.20442119 35 -16 35 C-16 35.66 -16 36.32 -16 37 C-13.69 36.67 -11.38 36.34 -9 36 C-9.66 37.32 -10.32 38.64 -11 40 C-9.9275 39.484375 -8.855 38.96875 -7.75 38.4375 C-4.74745101 36.99396683 -3.16753501 36.94181906 0 38 C-5.66507011 41.08900201 -10.50857435 43.57664615 -17 44 C-17 42.68 -17 41.36 -17 40 C-19.97 39.34 -22.94 38.68 -26 38 C-26 37.67 -26 37.34 -26 37 C-24.39125 36.8453125 -24.39125 36.8453125 -22.75 36.6875 C-19.05280624 36.00968114 -17.75697706 35.3631232 -15 33 C-14.01 32.67 -13.02 32.34 -12 32 C-11.67 30.02 -11.34 28.04 -11 26 C-11.99 26 -12.98 26 -14 26 C-14.33 26.66 -14.66 27.32 -15 28 C-15.33 26.02 -15.66 24.04 -16 22 C-21.61 22 -27.22 22 -33 22 C-33.33 21.01 -33.66 20.02 -34 19 C-32.86820313 19.01160156 -31.73640625 19.02320313 -30.5703125 19.03515625 C-29.08854331 19.04453454 -27.60677235 19.0536347 -26.125 19.0625 C-25.37863281 19.07087891 -24.63226563 19.07925781 -23.86328125 19.08789062 C-19.80154422 19.20688084 -19.80154422 19.20688084 -16 18 C-15.34786708 15.97536745 -15.34786708 15.97536745 -15 14 C-15.66 14 -16.32 14 -17 14 C-17 13.34 -17 12.68 -17 12 C-17.76666992 12.0407666 -18.53333984 12.0815332 -19.32324219 12.12353516 C-22.79835545 12.30197554 -26.2740522 12.46366909 -29.75 12.625 C-30.9565625 12.68945312 -32.163125 12.75390625 -33.40625 12.8203125 C-35.14648438 12.89765625 -35.14648438 12.89765625 -36.921875 12.9765625 C-37.99018555 13.02893066 -39.05849609 13.08129883 -40.15917969 13.13525391 C-43.02943104 12.99859876 -44.58218665 12.49455551 -47 11 C-46.34 11 -45.68 11 -45 11 C-45 10.34 -45 9.68 -45 9 C-44.42145264 8.97494385 -43.84290527 8.9498877 -43.24682617 8.92407227 C-40.56025967 8.80619585 -37.87387328 8.68470028 -35.1875 8.5625 C-33.73960083 8.49808716 -33.73960083 8.49808716 -32.26245117 8.43237305 C-27.41801262 8.20565381 -22.62920218 7.89888113 -17.8125 7.3125 C-12.64037223 6.76544802 -7.99969357 7.687716 -3 9 C-3 9.99 -3 10.98 -3 12 C-2.34 12 -1.68 12 -1 12 C-0.83126522 10.56274129 -0.66509263 9.12518162 -0.5 7.6875 C-0.36078125 6.48673828 -0.36078125 6.48673828 -0.21875 5.26171875 C0.04813463 2.88103445 0.04813463 2.88103445 0 0 Z " fill="#9E7D6C" transform="translate(126,114)"/>
<path d="M0 0 C0.99 0.99 1.98 1.98 3 3 C3.66 2.34 4.32 1.68 5 1 C8.81300782 4.2870757 10.22972246 7.39727838 12 12 C11.34 12 10.68 12 10 12 C11.6436814 13.68933922 13.3142876 15.35259924 15 17 C15.51304688 17.54914063 16.02609375 18.09828125 16.5546875 18.6640625 C20.48804726 20.81295872 24.48059682 20.23053995 28.875 20.0625 C39.56886792 19.69669811 39.56886792 19.69669811 45 22 C44.34 23.65 43.68 25.3 43 27 C29.72431355 27.45487758 15.55450592 27.32329666 4.91015625 18.2109375 C0.70476737 14.15434264 -2.76320467 9.85519299 -6 5 C-5.34 3.68 -4.68 2.36 -4 1 C-3.34 1.99 -2.68 2.98 -2 4 C-1.34 2.68 -0.68 1.36 0 0 Z " fill="#826758" transform="translate(65,132)"/>
<path d="M0 0 C1.2375 0.495 1.2375 0.495 2.5 1 C6.5873983 2.16782809 9.76923344 2.1458885 14 2 C12.1875 4 12.1875 4 10 6 C9.01 6 8.02 6 7 6 C6.9175 6.721875 6.835 7.44375 6.75 8.1875 C5.84286169 11.58926868 4.39989121 13.45466084 2 16 C1.34 16 0.68 16 0 16 C0 16.66 0 17.32 0 18 C-0.639375 18.2475 -1.27875 18.495 -1.9375 18.75 C-4.18741541 19.81562433 -4.18741541 19.81562433 -4.75 22.125 C-4.87375 23.053125 -4.87375 23.053125 -5 24 C-3.68 24.66 -2.36 25.32 -1 26 C-1.928125 26.928125 -2.85625 27.85625 -3.8125 28.8125 C-7.72367765 33.30619347 -8.81876109 38.26995512 -10 44 C-10.33 44 -10.66 44 -11 44 C-11 42.35 -11 40.7 -11 39 C-12.98 39.495 -12.98 39.495 -15 40 C-15.22174933 38.54364629 -15.42698698 37.08477044 -15.625 35.625 C-15.74101563 34.81289062 -15.85703125 34.00078125 -15.9765625 33.1640625 C-15.98429687 32.44992188 -15.99203125 31.73578125 -16 31 C-15.34 30.34 -14.68 29.68 -14 29 C-13.09282434 27.4770445 -12.22072673 25.93291765 -11.375 24.375 C-10.92898437 23.55773437 -10.48296875 22.74046875 -10.0234375 21.8984375 C-9.51683594 20.95871094 -9.51683594 20.95871094 -9 20 C-10.65 20.33 -12.3 20.66 -14 21 C-13.67 19.35 -13.34 17.7 -13 16 C-11.68 16.33 -10.36 16.66 -9 17 C-9.33 16.01 -9.66 15.02 -10 14 C-9.01 13.67 -8.02 13.34 -7 13 C-5.33289654 11.50014391 -5.33289654 11.50014391 -4 10 C-7.465 8.02 -7.465 8.02 -11 6 C-10.67 4.35 -10.34 2.7 -10 1 C-6.125 2.75 -6.125 2.75 -5 5 C-3.35 5 -1.7 5 0 5 C-0.66 4.34 -1.32 3.68 -2 3 C-1.34 2.01 -0.68 1.02 0 0 Z " fill="#AA8876" transform="translate(83,79)"/>
<path d="M0 0 C0.66 0.33 1.32 0.66 2 1 C1.0409375 2.3921875 1.0409375 2.3921875 0.0625 3.8125 C-2.08622093 6.84219943 -2.08622093 6.84219943 -3 10 C-2.34 10.33 -1.68 10.66 -1 11 C-1 10.34 -1 9.68 -1 9 C-0.34 9 0.32 9 1 9 C1 9.66 1 10.32 1 11 C2.32 11 3.64 11 5 11 C5 10.34 5 9.68 5 9 C7.97 9 10.94 9 14 9 C14 9.66 14 10.32 14 11 C16.64 11.66 19.28 12.32 22 13 C22 13.66 22 14.32 22 15 C22.66 15 23.32 15 24 15 C24 15.99 24 16.98 24 18 C27.63 18.33 31.26 18.66 35 19 C34.34 18.67 33.68 18.34 33 18 C33.33 16.68 33.66 15.36 34 14 C43.08264905 10.96517255 50.9623516 12.91438883 60 15 C60 15.33 60 15.66 60 16 C57.36 16 54.72 16 52 16 C52.66 16.66 53.32 17.32 54 18 C50.7 18 47.4 18 44 18 C43.566875 19.2065625 43.566875 19.2065625 43.125 20.4375 C42 23 42 23 40 24 C40 24.66 40 25.32 40 26 C37.6568787 25.74438677 35.32156597 25.40729228 33 25 C32.505 24.01 32.505 24.01 32 23 C28.80097361 22.91113816 26.07322544 23.08941469 23 24 C23.66 23.34 24.32 22.68 25 22 C24.37351562 21.86722656 23.74703125 21.73445313 23.1015625 21.59765625 C22.28429687 21.42105469 21.46703125 21.24445313 20.625 21.0625 C19.81289062 20.88847656 19.00078125 20.71445313 18.1640625 20.53515625 C16 20 16 20 14 19 C14.33 18.01 14.66 17.02 15 16 C10.75873988 13.87936994 5.1555678 14.78600596 0.625 15.625 C-2 16 -2 16 -5 14 C-6.02562794 10.11726565 -6.39904689 7.8978555 -4.75 4.1875 C-3 2 -3 2 0 0 Z " fill="#997C6B" transform="translate(71,60)"/>
<path d="M0 0 C0.8971875 0.5259375 0.8971875 0.5259375 1.8125 1.0625 C4.10813214 2.33304698 4.10813214 2.33304698 7 1 C7.33 1.99 7.66 2.98 8 4 C8.66 3.34 9.32 2.68 10 2 C12.49574169 1.96455751 14.83553139 2.04693108 17.3125 2.25 C18.62863281 2.33765625 19.94476563 2.4253125 21.30078125 2.515625 C24.58273871 2.94536389 27.02853408 3.59760603 30 5 C29.67 6.32 29.34 7.64 29 9 C6.76666667 14 6.76666667 14 -2 14 C-2 13.34 -2 12.68 -2 12 C-3.32 12 -4.64 12 -6 12 C-6 11.34 -6 10.68 -6 10 C-10.62 9.34 -15.24 8.68 -20 8 C-20 6.68 -20 5.36 -20 4 C-13.11422188 2.98406552 -6.90188971 3.16145265 0 4 C0 2.68 0 1.36 0 0 Z " fill="#C69C85" transform="translate(96,60)"/>
<path d="M0 0 C2.12560437 0.30836232 4.25047065 0.62181614 6.375 0.9375 C8.15003906 1.19853516 8.15003906 1.19853516 9.9609375 1.46484375 C13 2 13 2 15 3 C15 2.34 15 1.68 15 1 C16.47906892 0.97310784 17.95827483 0.95365379 19.4375 0.9375 C20.26121094 0.92589844 21.08492187 0.91429687 21.93359375 0.90234375 C24 1 24 1 25 2 C25.125 5.5 25.125 5.5 25 9 C24 10 24 10 22.15234375 10.09765625 C20.1015625 10.06510417 18.05078125 10.03255208 16 10 C16 10.66 16 11.32 16 12 C14.06257659 12.02703381 12.12504521 12.04641125 10.1875 12.0625 C9.10855469 12.07410156 8.02960938 12.08570313 6.91796875 12.09765625 C4 12 4 12 1 11 C1 10.34 1 9.68 1 9 C-0.65 9.33 -2.3 9.66 -4 10 C-3.625 7.0625 -3.625 7.0625 -3 4 C-2.34 3.67 -1.68 3.34 -1 3 C-0.67 2.01 -0.34 1.02 0 0 Z " fill="#CB9F89" transform="translate(86,136)"/>
<path d="M0 0 C0 1.32 0 2.64 0 4 C0.99 4 1.98 4 3 4 C3.27444575 8.86584898 2.37984303 12.44714797 0.6875 17 C0.25824219 18.175625 -0.17101562 19.35125 -0.61328125 20.5625 C-1.92252322 23.80794488 -3.42548422 26.87743088 -5 30 C-5.33 31.0725 -5.66 32.145 -6 33.25 C-7 36 -7 36 -10 38 C-10.15439047 33.67706693 -10.13100682 30.48220587 -8.984375 26.26171875 C-7.64064407 21.1659964 -7.95098695 16.31027032 -8.25390625 11.09179688 C-8.367797 7.37694874 -8.12947188 5.22240392 -6.2421875 1.98046875 C-4 0 -4 0 0 0 Z " fill="#916347" transform="translate(156,73)"/>
<path d="M0 0 C-3.75829714 3.30274597 -7.39023033 5.10670174 -12 7 C-16.23144152 9.06411782 -18.63301136 11.72119191 -21.47265625 15.37890625 C-23 17 -23 17 -24.89453125 17.80078125 C-28.11184403 19.63327665 -29.70061471 22.56522739 -31.625 25.625 C-32.01945312 26.21667969 -32.41390625 26.80835937 -32.8203125 27.41796875 C-37.27974073 34.39335818 -38.26291531 41.35309444 -38.625 49.5 C-38.68300781 50.59054688 -38.68300781 50.59054688 -38.7421875 51.703125 C-38.83509655 53.46839688 -38.9185657 55.23416157 -39 57 C-40.9375 56.625 -40.9375 56.625 -43 56 C-43.33 55.34 -43.66 54.68 -44 54 C-45.485 54.495 -45.485 54.495 -47 55 C-47.35412344 56.32796291 -47.68521554 57.66216607 -48 59 C-49.5625 60.75 -49.5625 60.75 -51 62 C-51.25 55.375 -51.25 55.375 -49 52 C-45.9375 51.75 -45.9375 51.75 -43 52 C-42.67 52.33 -42.34 52.66 -42 53 C-41.98541748 52.44538086 -41.97083496 51.89076172 -41.95581055 51.31933594 C-41.88113103 48.79553758 -41.78453975 46.27303346 -41.6875 43.75 C-41.65366211 42.44095703 -41.65366211 42.44095703 -41.61914062 41.10546875 C-41.28643145 33.18094105 -41.28643145 33.18094105 -38 30 C-35.41684412 27.09394963 -33.77937986 24.65751462 -32.5625 21 C-30.57749757 15.38286546 -27.23114299 12.48592664 -21.9375 9.9375 C-21.2465625 9.6178125 -20.555625 9.298125 -19.84375 8.96875 C-17.81510702 8.01934027 -17.81510702 8.01934027 -15.9375 5.9375 C-13.3070227 3.3070227 -10.43695109 2.35023079 -7 1 C-6.2575 0.5875 -5.515 0.175 -4.75 -0.25 C-3 -1 -3 -1 0 0 Z " fill="#734F2B" transform="translate(89,20)"/>
<path d="M0 0 C3.582906 -0.14533755 7.16505417 -0.23407931 10.75 -0.3125 C11.76578125 -0.35439453 12.7815625 -0.39628906 13.828125 -0.43945312 C21.39500069 -0.56390832 21.39500069 -0.56390832 24.703125 2.51953125 C25.13109375 3.33808594 25.5590625 4.15664062 26 5 C24.71389867 6.9829888 23.42150861 8.96133376 22.125 10.9375 C21.40570313 12.03964844 20.68640625 13.14179688 19.9453125 14.27734375 C18 17 18 17 16 18 C15.8453125 17.0409375 15.8453125 17.0409375 15.6875 16.0625 C15.460625 15.381875 15.23375 14.70125 15 14 C14.01 13.67 13.02 13.34 12 13 C11.71382812 12.40574219 11.42765625 11.81148437 11.1328125 11.19921875 C9.60346077 8.23016694 7.52145982 6.82184912 4.875 4.8125 C3.23531435 3.560672 1.60594458 2.29482986 0 1 C0 0.67 0 0.34 0 0 Z " fill="#86434A" transform="translate(88,164)"/>
<path d="M0 0 C1.32 0 2.64 0 4 0 C3.67 1.32 3.34 2.64 3 4 C5.47266765 3.65555119 5.47266765 3.65555119 8 3 C8.33 2.34 8.66 1.68 9 1 C9.66 1 10.32 1 11 1 C10.690625 1.928125 10.690625 1.928125 10.375 2.875 C10.25125 3.57625 10.1275 4.2775 10 5 C10.66 5.66 11.32 6.32 12 7 C10 9 10 9 8.08984375 9.1953125 C7.37957031 9.17210938 6.66929688 9.14890625 5.9375 9.125 C3.46916449 9.03638045 3.46916449 9.03638045 1 9 C1.763125 9.886875 2.52625 10.77375 3.3125 11.6875 C5.51546225 14.31864364 7.24541036 17.04909925 9 20 C10.58245275 21.75149165 10.58245275 21.75149165 12 23 C9.01758453 23.77321882 6.02419525 24.41196203 3 25 C3.66 24.67 4.32 24.34 5 24 C4.67 23.01 4.34 22.02 4 21 C2.2675 20.13375 2.2675 20.13375 0.5 19.25 C-1.42578125 18.2421875 -1.42578125 18.2421875 -3 17 C-3.6875 13.375 -3.6875 13.375 -4 10 C-5.93597032 8.48705712 -5.93597032 8.48705712 -8 8 C-6.68 7.67 -5.36 7.34 -4 7 C-4.33 6.01 -4.66 5.02 -5 4 C-4.01 4 -3.02 4 -2 4 C-1.34 2.68 -0.68 1.36 0 0 Z " fill="#9F806F" transform="translate(115,79)"/>
<path d="M0 0 C1.65 0.33 3.3 0.66 5 1 C5.33 1.99 5.66 2.98 6 4 C5.030625 4.268125 4.06125 4.53625 3.0625 4.8125 C2.051875 5.204375 1.04125 5.59625 0 6 C-0.33 6.99 -0.66 7.98 -1 9 C-0.28972656 9.13277344 0.42054687 9.26554687 1.15234375 9.40234375 C2.07144531 9.57894531 2.99054688 9.75554687 3.9375 9.9375 C4.85402344 10.11152344 5.77054688 10.28554687 6.71484375 10.46484375 C9 11 9 11 10 12 C11.4346959 12.09894455 12.87440397 12.12970735 14.3125 12.125 C15.09238281 12.12757812 15.87226562 12.13015625 16.67578125 12.1328125 C18.91251539 12.00499912 20.85266979 11.61913869 23 11 C22.814375 11.598125 22.62875 12.19625 22.4375 12.8125 C21.77906313 15.16408762 21.77906313 15.16408762 23 18 C19.875 17.47916667 16.75 16.95833333 13.625 16.4375 C12.325625 16.2209375 12.325625 16.2209375 11 16 C11 16.66 11 17.32 11 18 C9.68 17.67 8.36 17.34 7 17 C7 16.34 7 15.68 7 15 C5.80375 14.731875 4.6075 14.46375 3.375 14.1875 C-0.37855376 13.25912994 -3.60088806 11.86951157 -7 10 C-6.67 8.35 -6.34 6.7 -6 5 C-4.68 4.67 -3.36 4.34 -2 4 C-2 3.34 -2 2.68 -2 2 C-1.34 2 -0.68 2 0 2 C0 1.34 0 0.68 0 0 Z " fill="#B68468" transform="translate(85,93)"/>
<path d="M0 0 C0.33 0.66 0.66 1.32 1 2 C1.66 2 2.32 2 3 2 C3.33 1.34 3.66 0.68 4 0 C4.66 0.99 5.32 1.98 6 3 C6.99 3 7.98 3 9 3 C9.33 4.65 9.66 6.3 10 8 C9.34 8 8.68 8 8 8 C8 8.66 8 9.32 8 10 C9.32 10.66 10.64 11.32 12 12 C12 15.3 12 18.6 12 22 C11.01 22.33 10.02 22.66 9 23 C9.0825 22.29875 9.165 21.5975 9.25 20.875 C8.90247045 16.87841022 7.64838695 14.98792374 5 12 C1.3634269 11.02649222 1.3634269 11.02649222 -2 11 C-2.33 9.35 -2.66 7.7 -3 6 C-5.64 6 -8.28 6 -11 6 C-11 5.67 -11 5.34 -11 5 C-9.02 5 -7.04 5 -5 5 C-5 4.01 -5 3.02 -5 2 C-3.68 2 -2.36 2 -1 2 C-0.67 1.34 -0.34 0.68 0 0 Z " fill="#947461" transform="translate(122,51)"/>
<path d="M0 0 C3.63 0 7.26 0 11 0 C10.01 0.66 9.02 1.32 8 2 C8.69867188 2.53109375 9.39734375 3.0621875 10.1171875 3.609375 C11.02726562 4.31578125 11.93734375 5.0221875 12.875 5.75 C13.77992187 6.44609375 14.68484375 7.1421875 15.6171875 7.859375 C17.88461725 9.89634468 18.78281427 11.28201246 20 14 C20.66 14.33 21.32 14.66 22 15 C22 16.65 22 18.3 22 20 C20.68 20 19.36 20 18 20 C16.66494868 18.42532408 15.33889821 16.84215826 14.05859375 15.22265625 C9.6661809 10.48018393 4.18750685 6.82520906 -1 3 C-0.67 2.01 -0.34 1.02 0 0 Z " fill="#9D5951" transform="translate(81,163)"/>
<path d="M0 0 C1.79133978 -0.05391993 3.58313899 -0.09275571 5.375 -0.125 C6.37273437 -0.14820312 7.37046875 -0.17140625 8.3984375 -0.1953125 C11 0 11 0 13 2 C15.32275177 2.40047444 17.65739357 2.7397104 20 3 C20 3.99 20 4.98 20 6 C17.03 6 14.06 6 11 6 C10.67 6.99 10.34 7.98 10 9 C8.5629191 9.05422947 7.12524538 9.09289723 5.6875 9.125 C4.88699219 9.14820312 4.08648437 9.17140625 3.26171875 9.1953125 C1 9 1 9 -2 7 C-4.32108669 6.29187186 -6.65377147 5.61975848 -9 5 C-9 4.34 -9 3.68 -9 3 C-6.36 3 -3.72 3 -1 3 C-0.67 2.01 -0.34 1.02 0 0 Z " fill="#CD9575" transform="translate(94,97)"/>
<path d="M0 0 C3.37492629 -0.05845196 6.74972087 -0.09374742 10.125 -0.125 C11.07632813 -0.14175781 12.02765625 -0.15851563 13.0078125 -0.17578125 C18.08583255 -0.21104528 22.24487525 -0.03333617 27 2 C26.34 3.65 25.68 5.3 25 7 C22.47886908 7.05447822 19.9589415 7.09389852 17.4375 7.125 C16.73302734 7.14175781 16.02855469 7.15851563 15.30273438 7.17578125 C10.56538287 7.21944348 6.43413787 6.86759401 2 5 C0.5625 2.375 0.5625 2.375 0 0 Z " fill="#897166" transform="translate(83,152)"/>
<path d="M0 0 C0.825 0.33 1.65 0.66 2.5 1 C6.5873983 2.16782809 9.76923344 2.1458885 14 2 C10.73617631 5.91658843 7.82926889 6.68292667 3 8 C1.22722741 9.52007842 1.22722741 9.52007842 0 11 C-0.66 11 -1.32 11 -2 11 C-2.07347656 11.76570313 -2.14695312 12.53140625 -2.22265625 13.3203125 C-3 16 -3 16 -4.99609375 17.6171875 C-5.80175781 18.03226563 -6.60742188 18.44734375 -7.4375 18.875 C-8.24058594 19.30554688 -9.04367188 19.73609375 -9.87109375 20.1796875 C-10.57363281 20.45039062 -11.27617188 20.72109375 -12 21 C-12.66 20.67 -13.32 20.34 -14 20 C-13.67 18.68 -13.34 17.36 -13 16 C-11.68 16.33 -10.36 16.66 -9 17 C-9.33 16.01 -9.66 15.02 -10 14 C-9.01 13.67 -8.02 13.34 -7 13 C-5.33289654 11.50014391 -5.33289654 11.50014391 -4 10 C-7.465 8.02 -7.465 8.02 -11 6 C-10.67 4.35 -10.34 2.7 -10 1 C-6.125 2.75 -6.125 2.75 -5 5 C-3.35 5 -1.7 5 0 5 C-0.66 4.34 -1.32 3.68 -2 3 C-1.34 2.01 -0.68 1.02 0 0 Z " fill="#937260" transform="translate(83,79)"/>
<path d="M0 0 C2.67460126 1.98955353 5.3380126 3.9936095 8 6 C8.79019531 6.5878125 9.58039063 7.175625 10.39453125 7.78125 C14.48764621 10.87654092 18.03252933 13.7423247 21 18 C23.15811388 17.05270463 23.15811388 17.05270463 25 15 C25.33 15.99 25.66 16.98 26 18 C25 19.625 25 19.625 23 21 C19.125 20.125 19.125 20.125 17.1328125 19.4453125 C14.50441314 18.89652582 12.57923403 19.34395789 10 20 C8.32265277 17.23549979 6.66002366 14.46243144 5 11.6875 C4.52304688 10.90181641 4.04609375 10.11613281 3.5546875 9.30664062 C2.87792969 8.1706543 2.87792969 8.1706543 2.1875 7.01171875 C1.76855469 6.31522217 1.34960938 5.61872559 0.91796875 4.90112305 C0 3 0 3 0 0 Z " fill="#6C6765" transform="translate(79,165)"/>
<path d="M0 0 C1.45903258 0.30921884 2.91720722 0.62248799 4.375 0.9375 C5.18710938 1.11152344 5.99921875 1.28554687 6.8359375 1.46484375 C9 2 9 2 11 3 C11 3.66 11 4.32 11 5 C9.96875 4.855625 8.9375 4.71125 7.875 4.5625 C3.5887237 5.04643442 3.18726114 5.38661985 0.5625 8.5 C-0.31234976 9.65123833 -1.17366038 10.81346106 -2 12 C-0.02 12 1.96 12 4 12 C4.33 13.65 4.66 15.3 5 17 C-1.435 17.495 -1.435 17.495 -8 18 C-7.07151433 10.1078718 -5.17368751 5.85443586 0 0 Z " fill="#BA9685" transform="translate(81,105)"/>
<path d="M0 0 C7.29288382 7.29288382 6.74703655 22.26090709 7 32 C8.65 31.67 10.3 31.34 12 31 C15 34.75 15 34.75 15 37 C14.01 37 13.02 37 12 37 C12 35.68 12 34.36 12 33 C7.75177626 33.47202486 5.80010291 35.96655518 3 39 C3.04060547 37.08960937 3.04060547 37.08960937 3.08203125 35.140625 C3.07896835 29.92552913 2.46689232 24.89941793 1.6875 19.75 C1.56955078 18.87859375 1.45160156 18.0071875 1.33007812 17.109375 C0.62251727 12.34876045 -0.3068657 9.07524135 -3 5 C-2.67 4.34 -2.34 3.68 -2 3 C-1.34 3.66 -0.68 4.32 0 5 C0 3.35 0 1.7 0 0 Z " fill="#685035" transform="translate(144,40)"/>
<path d="M0 0 C5.77807024 -0.2358396 10.51324804 0.13216954 16 2 C16 4.97 16 7.94 16 11 C15.67 10.34 15.34 9.68 15 9 C8.4 9 1.8 9 -5 9 C-5.33 10.32 -5.66 11.64 -6 13 C-6.33 12.34 -6.66 11.68 -7 11 C-7.66 11 -8.32 11 -9 11 C-8.67 9.68 -8.34 8.36 -8 7 C-6.741875 6.896875 -5.48375 6.79375 -4.1875 6.6875 C-1.39500343 6.35141192 -0.25566879 6.19974124 2 4.4375 C2.33 3.963125 2.66 3.48875 3 3 C2.01 2.67 1.02 2.34 0 2 C0 1.34 0 0.68 0 0 Z " fill="#BE947E" transform="translate(81,55)"/>
<path d="M0 0 C3.41989718 0.19123836 6.83415626 0.43455744 10.25 0.6875 C11.21808594 0.74099609 12.18617187 0.79449219 13.18359375 0.84960938 C20.4019949 1.42210326 20.4019949 1.42210326 23.671875 4.58203125 C24.32929687 5.77892578 24.32929687 5.77892578 25 7 C15.98327597 9.32689652 7.00633411 7.55905629 -2 6 C-0.68 4.68 0.64 3.36 2 2 C1.34 1.34 0.68 0.68 0 0 Z " fill="#E8E5E5" transform="translate(84,157)"/>
<path d="M0 0 C0.33 0 0.66 0 1 0 C0.96447021 0.73935791 0.92894043 1.47871582 0.89233398 2.24047852 C-0.08652011 22.13837796 -0.08652011 22.13837796 1 42 C0.01 42.495 0.01 42.495 -1 43 C-1.7166207 45.31847874 -2.38242027 47.65319703 -3 50 C-3.33 50.66 -3.66 51.32 -4 52 C-5 51 -5 51 -5.0625 47.4375 C-5.041875 46.303125 -5.02125 45.16875 -5 44 C-4.34 44 -3.68 44 -3 44 C-3.33 43.236875 -3.66 42.47375 -4 41.6875 C-5 39 -5 39 -5 36 C-4.34 36 -3.68 36 -3 36 C-3 30.72 -3 25.44 -3 20 C-2.34 20 -1.68 20 -1 20 C-1.01160156 18.89140625 -1.02320313 17.7828125 -1.03515625 16.640625 C-1.04453792 15.17708502 -1.05363771 13.71354322 -1.0625 12.25 C-1.07506836 11.15558594 -1.07506836 11.15558594 -1.08789062 10.0390625 C-1.10391684 6.51329442 -0.95292713 3.38965084 0 0 Z " fill="#8A6543" transform="translate(51,57)"/>
<path d="M0 0 C12.54 0 25.08 0 38 0 C38.495 1.98 38.495 1.98 39 4 C37.0085944 4.38133299 35.00720923 4.71325582 33 5 C32.505 4.505 32.505 4.505 32 4 C29.82772769 3.93663812 27.65343169 3.9408164 25.48046875 3.97265625 C24.13476825 3.98530889 22.78906499 3.99766937 21.44335938 4.00976562 C19.31688866 4.03454052 17.19056089 4.06245178 15.06420898 4.09594727 C13.01545316 4.12623384 10.96687771 4.14395568 8.91796875 4.16015625 C7.07368286 4.18541382 7.07368286 4.18541382 5.19213867 4.21118164 C2.1677903 4.01110047 0.52859181 3.59686027 -2 2 C-1.34 2 -0.68 2 0 2 C0 1.34 0 0.68 0 0 Z " fill="#83675D" transform="translate(81,123)"/>
<path d="M0 0 C1.64961389 4.05362438 0.23911189 6.86293024 -1.25 10.8125 C-1.48380371 11.43543945 -1.71760742 12.05837891 -1.95849609 12.70019531 C-2.62799085 14.47099736 -3.31354944 16.23570163 -4 18 C-4.29648438 18.79277344 -4.59296875 19.58554688 -4.8984375 20.40234375 C-6.22388868 23.77298034 -6.88527969 24.92351979 -10 27 C-10.44777017 19.53716383 -9.34298193 12.106081 -7 5 C-6.01 4.67 -5.02 4.34 -4 4 C-4 5.98 -4 7.96 -4 10 C-3.79503906 9.36191406 -3.59007812 8.72382812 -3.37890625 8.06640625 C-3.10949219 7.24011719 -2.84007812 6.41382812 -2.5625 5.5625 C-2.16224609 4.32693359 -2.16224609 4.32693359 -1.75390625 3.06640625 C-1 1 -1 1 0 0 Z " fill="#967157" transform="translate(156,84)"/>
<path d="M0 0 C1.04244873 -0.00217529 1.04244873 -0.00217529 2.10595703 -0.00439453 C7.04208979 0.10458979 7.04208979 0.10458979 9.3125 2.375 C6.61216295 3.72516853 5.24668878 2.97517498 2.3125 2.375 C-0.85445956 2.20775263 -0.85445956 2.20775263 -3.6875 2.375 C-4.0175 2.705 -4.3475 3.035 -4.6875 3.375 C-3.93984375 3.41238281 -3.1921875 3.44976562 -2.421875 3.48828125 C-0.94460937 3.58689453 -0.94460937 3.58689453 0.5625 3.6875 C1.53703125 3.74550781 2.5115625 3.80351562 3.515625 3.86328125 C6.56591611 4.42136524 8.01961276 5.33869776 10.3125 7.375 C9.19875 7.21 8.085 7.045 6.9375 6.875 C-0.69560851 5.93097598 -8.09690139 6.25046687 -15.6875 7.375 C-15.3575 6.715 -15.0275 6.055 -14.6875 5.375 C-19.1425 5.87 -19.1425 5.87 -23.6875 6.375 C-17.8757924 0.5632924 -7.85612784 0.00178184 0 0 Z " fill="#4D3722" transform="translate(100.6875,10.625)"/>
<path d="M0 0 C1.43472656 -0.02126953 1.43472656 -0.02126953 2.8984375 -0.04296875 C5.68645406 0.19269454 7.30334794 0.65221396 9.625 2.1875 C10.375 4.3125 10.375 4.3125 10.625 6.1875 C4.01884924 7.6888979 -1.79489657 6.49487687 -8.375 5.1875 C-8 3.25 -8 3.25 -7.375 1.1875 C-4.801671 -0.0991645 -2.87276962 0.01925449 0 0 Z " fill="#CAA698" transform="translate(99.375,126.8125)"/>
<path d="M0 0 C1.14662109 -0.03867188 1.14662109 -0.03867188 2.31640625 -0.078125 C4.93473244 0.32691994 5.78268701 1.24096187 7.4375 3.25 C6.7775 3.25 6.1175 3.25 5.4375 3.25 C5.4375 3.91 5.4375 4.57 5.4375 5.25 C6.7575 5.58 8.0775 5.91 9.4375 6.25 C9.1075 6.91 8.7775 7.57 8.4375 8.25 C7.1175 7.59 5.7975 6.93 4.4375 6.25 C3.7775 6.91 3.1175 7.57 2.4375 8.25 C3.0975 8.91 3.7575 9.57 4.4375 10.25 C3.4375 11.25 3.4375 11.25 -0.125 11.3125 C-1.259375 11.291875 -2.39375 11.27125 -3.5625 11.25 C-3.5625 10.26 -3.5625 9.27 -3.5625 8.25 C-4.2225 7.26 -4.8825 6.27 -5.5625 5.25 C-5.2325 4.92 -4.9025 4.59 -4.5625 4.25 C-5.8825 3.92 -7.2025 3.59 -8.5625 3.25 C-8.5625 2.59 -8.5625 1.93 -8.5625 1.25 C-5.66691295 0.43211209 -3.00785913 0.06107328 0 0 Z " fill="#7C6C67" transform="translate(79.5625,73.75)"/>
<path d="M0 0 C3.88616629 -0.56673258 5.91224794 -0.72075397 9.24609375 1.48828125 C11.29214081 3.24985118 13.22616124 4.96354095 15 7 C15 7.66 15 8.32 15 9 C15.66 9 16.32 9 17 9 C18.35439668 11.70879335 18.06501451 14.00933268 18 17 C17.34 17.33 16.68 17.66 16 18 C15.8453125 17.0409375 15.8453125 17.0409375 15.6875 16.0625 C15.460625 15.381875 15.23375 14.70125 15 14 C14.01 13.67 13.02 13.34 12 13 C11.71382812 12.40574219 11.42765625 11.81148437 11.1328125 11.19921875 C9.60346077 8.23016694 7.52145982 6.82184912 4.875 4.8125 C3.23531435 3.560672 1.60594458 2.29482986 0 1 C0 0.67 0 0.34 0 0 Z " fill="#484040" transform="translate(88,164)"/>
<path d="M0 0 C0.66 0.33 1.32 0.66 2 1 C1.37853192 2.43903046 0.75267941 3.87616793 0.125 5.3125 C-0.22304687 6.11300781 -0.57109375 6.91351563 -0.9296875 7.73828125 C-2 10 -2 10 -4 13 C-3.01 12.67 -2.02 12.34 -1 12 C-1.33103171 15.06204329 -1.60050904 16.60050904 -3.8125 18.8125 C-6 20 -6 20 -10 20 C-10 19.01 -10 18.02 -10 17 C-11.65 17 -13.3 17 -15 17 C-15 16.34 -15 15.68 -15 15 C-12.03 14.34 -9.06 13.68 -6 13 C-6 11.68 -6 10.36 -6 9 C-5.34 9 -4.68 9 -4 9 C-3.896875 8.2575 -3.79375 7.515 -3.6875 6.75 C-2.95746496 3.82985982 -1.93210602 2.26812446 0 0 Z " fill="#8B6A57" transform="translate(125,134)"/>
<path d="M0 0 C1.34712421 0.08785593 2.69353113 0.18729574 4.0390625 0.296875 C5.04839844 0.35681641 5.04839844 0.35681641 6.078125 0.41796875 C9.69516858 0.68141484 12.56543387 1.10824581 15.6640625 3.046875 C15.6640625 3.706875 15.6640625 4.366875 15.6640625 5.046875 C13.3540625 5.046875 11.0440625 5.046875 8.6640625 5.046875 C8.6640625 4.386875 8.6640625 3.726875 8.6640625 3.046875 C7.6740625 3.046875 6.6840625 3.046875 5.6640625 3.046875 C5.6640625 4.036875 5.6640625 5.026875 5.6640625 6.046875 C2.04432848 7.36314192 -0.43160881 8.046875 -4.3359375 8.046875 C-4.9609375 5.171875 -4.9609375 5.171875 -5.3359375 2.046875 C-3.3359375 0.046875 -3.3359375 0.046875 0 0 Z " fill="#CDA792" transform="translate(109.3359375,61.953125)"/>
<path d="M0 0 C2.62462325 2.39639515 3.88481669 4.19993375 4.12025452 7.87931824 C4.11803391 8.58325211 4.11581329 9.28718597 4.11352539 10.01245117 C4.11341209 11.2133564 4.11341209 11.2133564 4.11329651 12.43852234 C4.10813522 13.29798965 4.10297394 14.15745697 4.09765625 15.04296875 C4.0962413 15.9265657 4.09482635 16.81016266 4.09336853 17.72053528 C4.08777069 20.54289128 4.07521861 23.36516797 4.0625 26.1875 C4.05748472 28.10091031 4.05292186 30.01432187 4.04882812 31.92773438 C4.03780197 36.61852014 4.02053883 41.30924663 4 46 C3.67 46 3.34 46 3 46 C1.07938687 30.69103512 0.42531512 15.41680857 0 0 Z " fill="#CECECD" transform="translate(59,147)"/>
<path d="M0 0 C0.99 0 1.98 0 3 0 C5.03435531 3.72965139 6 5.66905042 6 10 C1.38 10 -3.24 10 -8 10 C-4.2890625 4.53125 -4.2890625 4.53125 -3 3 C-2.34 3 -1.68 3 -1 3 C-0.67 2.01 -0.34 1.02 0 0 Z " fill="#7A5960" transform="translate(100,190)"/>
<path d="M0 0 C-0.61488281 0.68835938 -0.61488281 0.68835938 -1.2421875 1.390625 C-1.78101562 2.00421875 -2.31984375 2.6178125 -2.875 3.25 C-3.40867187 3.85328125 -3.94234375 4.4565625 -4.4921875 5.078125 C-5.9797487 6.97418746 -7.00322436 8.81290005 -8 11 C-8.66 11 -9.32 11 -10 11 C-10.66 12.65 -11.32 14.3 -12 16 C-12.66 15.67 -13.32 15.34 -14 15 C-13.50419272 10.04192718 -12.58960079 6.2828013 -10 2 C-5.86678317 -0.75547789 -4.77928863 -1.13193678 0 0 Z " fill="#B76C60" transform="translate(99,184)"/>
<path d="M0 0 C0.33 0.66 0.66 1.32 1 2 C1.66 2 2.32 2 3 2 C1.52926475 6.85342633 -1.19565989 10.68683057 -5 14 C-8.375 14.9375 -8.375 14.9375 -11 15 C-10.70738281 14.42378906 -10.41476563 13.84757813 -10.11328125 13.25390625 C-9.41419328 11.83855972 -8.740668 10.40999139 -8.10546875 8.96484375 C-6.1077763 4.55291873 -4.61987435 2.05327749 0 0 Z " fill="#7E614F" transform="translate(132,132)"/>
<path d="M0 0 C0.66 0 1.32 0 2 0 C2.33 0.99 2.66 1.98 3 3 C3.66 3.33 4.32 3.66 5 4 C5.33 4.99 5.66 5.98 6 7 C6.66 7.33 7.32 7.66 8 8 C8.33 7.01 8.66 6.02 9 5 C9.7734375 5.4640625 9.7734375 5.4640625 10.5625 5.9375 C13.66665423 7.29059287 16.65115007 7.61359424 20 8 C20 8.99 20 9.98 20 11 C9.92914798 13.02780269 9.92914798 13.02780269 5.19921875 10.5078125 C3.00716283 8.76675373 0.96624098 6.99106725 -1 5 C-0.67 3.35 -0.34 1.7 0 0 Z " fill="#9F7D6C" transform="translate(76,141)"/>
<path d="M0 0 C0.33 0 0.66 0 1 0 C1.15998199 6.24656938 0.57217565 12.14219707 -0.375 18.3125 C-0.50132812 19.20517578 -0.62765625 20.09785156 -0.7578125 21.01757812 C-0.88671875 21.87416016 -1.015625 22.73074219 -1.1484375 23.61328125 C-1.26364746 24.38454346 -1.37885742 25.15580566 -1.49755859 25.95043945 C-2 28 -2 28 -4 31 C-4.33 30.67 -4.66 30.34 -5 30 C-5.495 32.475 -5.495 32.475 -6 35 C-6.33 35 -6.66 35 -7 35 C-7.14285714 26.42857143 -7.14285714 26.42857143 -6 23 C-5.34 23 -4.68 23 -4 23 C-3.94392578 21.515 -3.94392578 21.515 -3.88671875 20 C-3.55372743 12.8682103 -3.07782966 6.55711537 0 0 Z " fill="#E8E8E8" transform="translate(131,156)"/>
<path d="M0 0 C0.66 0.99 1.32 1.98 2 3 C2.44859375 3.62777344 2.8971875 4.25554687 3.359375 4.90234375 C3.81828125 5.57394531 4.2771875 6.24554688 4.75 6.9375 C5.45382813 7.94103516 5.45382813 7.94103516 6.171875 8.96484375 C7 11 7 11 6.140625 13.25390625 C5.57601562 14.11822266 5.57601562 14.11822266 5 15 C3.53426066 14.09522263 2.07764244 13.17565859 0.625 12.25 C-0.18710938 11.73953125 -0.99921875 11.2290625 -1.8359375 10.703125 C-4.08555679 8.9326665 -4.95906848 7.63092581 -6 5 C-4.02 3.35 -2.04 1.7 0 0 Z " fill="#F2F2F2" transform="translate(78,165)"/>
<path d="M0 0 C0.91007812 0.10183594 1.82015625 0.20367187 2.7578125 0.30859375 C3.45648438 0.39238281 4.15515625 0.47617188 4.875 0.5625 C5.205 1.5525 5.535 2.5425 5.875 3.5625 C6.535 3.8925 7.195 4.2225 7.875 4.5625 C6.885 5.0575 6.885 5.0575 5.875 5.5625 C6.865 6.5525 7.855 7.5425 8.875 8.5625 C6.875 10.5625 6.875 10.5625 4.25 10.6875 C3.46625 10.64625 2.6825 10.605 1.875 10.5625 C1.441875 9.593125 1.00875 8.62375 0.5625 7.625 C-0.8264861 4.28518235 -0.8264861 4.28518235 -4.125 3.5625 C-5.115 4.0575 -5.115 4.0575 -6.125 4.5625 C-6.455 3.2425 -6.785 1.9225 -7.125 0.5625 C-4.50184968 -0.74907516 -2.89466564 -0.33399988 0 0 Z " fill="#9C765F" transform="translate(67.125,79.4375)"/>
<path d="M0 0 C3.63 0 7.26 0 11 0 C11 1.65 11 3.3 11 5 C4.4 5 -2.2 5 -9 5 C-9 4.34 -9 3.68 -9 3 C-6.36 3 -3.72 3 -1 3 C-0.67 2.01 -0.34 1.02 0 0 Z " fill="#D8AB91" transform="translate(94,97)"/>
<path d="M0 0 C2.01822917 0.06510417 4.03645833 0.13020833 6.0546875 0.1953125 C6.7146875 1.8453125 7.3746875 3.4953125 8.0546875 5.1953125 C7.27222656 5.24429688 6.48976563 5.29328125 5.68359375 5.34375 C4.67167969 5.41851562 3.65976563 5.49328125 2.6171875 5.5703125 C1.60785156 5.63992187 0.59851563 5.70953125 -0.44140625 5.78125 C-1.26769531 5.91789062 -2.09398438 6.05453125 -2.9453125 6.1953125 C-3.2753125 6.8553125 -3.6053125 7.5153125 -3.9453125 8.1953125 C-6.5853125 8.1953125 -9.2253125 8.1953125 -11.9453125 8.1953125 C-12.2753125 8.8553125 -12.6053125 9.5153125 -12.9453125 10.1953125 C-12.6153125 8.8753125 -12.2853125 7.5553125 -11.9453125 6.1953125 C-9.6353125 6.1953125 -7.3253125 6.1953125 -4.9453125 6.1953125 C-4.8215625 5.5765625 -4.6978125 4.9578125 -4.5703125 4.3203125 C-3.76206061 1.57225609 -2.9499914 0.29618388 0 0 Z " fill="#C78F6D" transform="translate(96.9453125,91.8046875)"/>
<path d="M0 0 C1.5625 1.125 1.5625 1.125 3 3 C2.6875 6.1875 2.6875 6.1875 2 9 C-4.14154225 8.41509121 -10.00679849 7.45933748 -16 6 C-15.67 5.34 -15.34 4.68 -15 4 C-12.35139573 3.40644386 -9.70802678 3.25790731 -7 3 C-7 3.66 -7 4.32 -7 5 C-4.55519921 4.81171228 -4.55519921 4.81171228 -2 4 C-0.63979849 2.03241727 -0.63979849 2.03241727 0 0 Z " fill="#A2806E" transform="translate(129,66)"/>
<path d="M0 0 C0.57934159 5.40718817 0.34220083 8.10649656 -3 12.5 C-3.98191175 13.68193081 -4.97612198 14.85423174 -6 16 C-7.32 15.34 -8.64 14.68 -10 14 C-10 11 -10 11 -8 9 C-7.0409375 7.5459375 -7.0409375 7.5459375 -6.0625 6.0625 C-1.97959184 0 -1.97959184 0 0 0 Z " fill="#B89483" transform="translate(77,99)"/>
<path d="M0 0 C0.99 0 1.98 0 3 0 C3 0.99 3 1.98 3 3 C2.34 3 1.68 3 1 3 C0.67 4.32 0.34 5.64 0 7 C-0.66 7 -1.32 7 -2 7 C-2.33 8.98 -2.66 10.96 -3 13 C-1.35 12.67 0.3 12.34 2 12 C0.74458443 14.51083114 -0.50063488 14.87125446 -3 16 C-3.103125 15.360625 -3.20625 14.72125 -3.3125 14.0625 C-3.539375 13.381875 -3.76625 12.70125 -4 12 C-4.99 11.67 -5.98 11.34 -7 11 C-7 10.01 -7 9.02 -7 8 C-7.66 8 -8.32 8 -9 8 C-9 7.01 -9 6.02 -9 5 C-4.545 4.505 -4.545 4.505 0 4 C0 2.68 0 1.36 0 0 Z " fill="#AE8674" transform="translate(85,133)"/>
<path d="M0 0 C1.45903258 0.30921884 2.91720722 0.62248799 4.375 0.9375 C5.18710938 1.11152344 5.99921875 1.28554687 6.8359375 1.46484375 C9 2 9 2 11 3 C11 3.66 11 4.32 11 5 C9.948125 4.938125 8.89625 4.87625 7.8125 4.8125 C3.77539551 5.01104612 2.11637422 5.50690063 -1 8 C-1.350625 8.70125 -1.70125 9.4025 -2.0625 10.125 C-3 12 -3 12 -5.125 12.75 C-6.053125 12.87375 -6.053125 12.87375 -7 13 C-5.74875245 7.31251115 -3.95897432 4.27152492 0 0 Z " fill="#B58B77" transform="translate(81,105)"/>
<path d="M0 0 C0.66 0.33 1.32 0.66 2 1 C0.86527006 3.69498362 -0.03669136 5.58506836 -2.8046875 6.77734375 C-6.55676465 7.7472203 -10.11128505 8.24304468 -14 8 C-14.33 6.35 -14.66 4.7 -15 3 C-14.08476563 2.86722656 -13.16953125 2.73445313 -12.2265625 2.59765625 C-11.03804688 2.42105469 -9.84953125 2.24445312 -8.625 2.0625 C-7.44164063 1.88847656 -6.25828125 1.71445312 -5.0390625 1.53515625 C-2.09297619 1.16537214 -2.09297619 1.16537214 0 0 Z " fill="#BD937E" transform="translate(110,45)"/>
<path d="M0 0 C1.47906892 -0.02689216 2.95827483 -0.04634621 4.4375 -0.0625 C5.26121094 -0.07410156 6.08492187 -0.08570313 6.93359375 -0.09765625 C9 0 9 0 10 1 C10.125 4.5 10.125 4.5 10 8 C9 9 9 9 7.15234375 9.09765625 C5.1015625 9.06510417 3.05078125 9.03255208 1 9 C1 9.66 1 10.32 1 11 C-2.96 11 -6.92 11 -11 11 C-9.68 10.67 -8.36 10.34 -7 10 C-7 9.34 -7 8.68 -7 8 C-2.05 8 2.9 8 8 8 C5.65079137 2.85537969 5.65079137 2.85537969 2 2 C1.01 2 0.02 2 -1 2 C-0.67 1.34 -0.34 0.68 0 0 Z " fill="#C3957E" transform="translate(101,137)"/>
<path d="M0 0 C0.33 0.66 0.66 1.32 1 2 C7.435 1.505 7.435 1.505 14 1 C13.67 2.32 13.34 3.64 13 5 C13 4.01 13 3.02 13 2 C12.01 2 11.02 2 10 2 C9.67 2.99 9.34 3.98 9 5 C8 6 7 7 6 8 C5.67 8.99 5.34 9.98 5 11 C3.68 10.67 2.36 10.34 1 10 C1 9.34 1 8.68 1 8 C0.34 8 -0.32 8 -1 8 C-0.67 7.01 -0.34 6.02 0 5 C-0.66 4.34 -1.32 3.68 -2 3 C-1.34 2.01 -0.68 1.02 0 0 Z " fill="#A07C66" transform="translate(126,81)"/>
<path d="M0 0 C1.32 0.33 2.64 0.66 4 1 C5.32528788 7.09632423 4.46619907 11.97767819 3 18 C2.67 18 2.34 18 2 18 C1.67 16.02 1.34 14.04 1 12 C0.01 12 -0.98 12 -2 12 C-3.4783226 9.04335481 -3.06032783 6.25770263 -3 3 C-2.34 3.66 -1.68 4.32 -1 5 C-0.67 3.35 -0.34 1.7 0 0 Z " fill="#926345" transform="translate(42,73)"/>
<path d="M0 0 C2.53683081 2.53683081 2.60452875 4.16398718 3.25390625 7.671875 C3.46853516 8.81140625 3.68316406 9.9509375 3.90429688 11.125 C4.12150391 12.32125 4.33871094 13.5175 4.5625 14.75 C4.78357422 15.93078125 5.00464844 17.1115625 5.23242188 18.328125 C8.13531959 33.9037937 8.13531959 33.9037937 8.0625 39.875 C8.05347656 40.84179688 8.04445313 41.80859375 8.03515625 42.8046875 C8.02355469 43.52914062 8.01195312 44.25359375 8 45 C7.67 45 7.34 45 7 45 C6.32713781 40.77179486 5.66279461 36.54229401 5 32.3125 C4.80921875 31.11431641 4.6184375 29.91613281 4.421875 28.68164062 C4.24140625 27.52470703 4.0609375 26.36777344 3.875 25.17578125 C3.62363281 23.58117065 3.62363281 23.58117065 3.3671875 21.9543457 C3.03259931 19.26229003 2.92993695 16.70837469 3 14 C2.34 14 1.68 14 1 14 C0.67 9.38 0.34 4.76 0 0 Z " fill="#4B3443" transform="translate(19,50)"/>
<path d="M0 0 C0.33 0.99 0.66 1.98 1 3 C-6.68457746 9.39925667 -14.27523963 15.11413419 -23 20 C-23.33 19.01 -23.66 18.02 -24 17 C-23.42894531 16.68289062 -22.85789062 16.36578125 -22.26953125 16.0390625 C-14.54940902 11.59600328 -6.34306414 6.34306414 0 0 Z " fill="#1A2228" transform="translate(52,126)"/>
<path d="M0 0 C1.18851563 0.00902344 2.37703125 0.01804687 3.6015625 0.02734375 C4.51679688 0.03894531 5.43203125 0.05054687 6.375 0.0625 C6.705 0.7225 7.035 1.3825 7.375 2.0625 C8.035 2.0625 8.695 2.0625 9.375 2.0625 C9.045 3.0525 8.715 4.0425 8.375 5.0625 C4.65900809 5.26336443 3.60291555 5.2144437 0.375 3.0625 C0.045 4.0525 -0.285 5.0425 -0.625 6.0625 C-2.275 6.0625 -3.925 6.0625 -5.625 6.0625 C-5.295 4.7425 -4.965 3.4225 -4.625 2.0625 C-5.945 1.7325 -7.265 1.4025 -8.625 1.0625 C-5.74084117 -0.37957941 -3.20778472 -0.03144887 0 0 Z " fill="#665C59" transform="translate(123.625,76.9375)"/>
<path d="M0 0 C0.33 1.32 0.66 2.64 1 4 C1.99 4 2.98 4 4 4 C4.33 4.99 4.66 5.98 5 7 C3.700625 6.814375 2.40125 6.62875 1.0625 6.4375 C-3.80547826 5.88115963 -8.15954005 6.30850572 -13 7 C-13 6.01 -13 5.02 -13 4 C-11.39935157 3.46845258 -9.79431126 2.95011647 -8.1875 2.4375 C-7.29417969 2.14746094 -6.40085937 1.85742188 -5.48046875 1.55859375 C-3 1 -3 1 0 2 C0 1.34 0 0.68 0 0 Z " fill="#B58466" transform="translate(103,81)"/>
<path d="M0 0 C1.32 0 2.64 0 4 0 C3.67 1.32 3.34 2.64 3 4 C5.47266765 3.65555119 5.47266765 3.65555119 8 3 C8.33 2.34 8.66 1.68 9 1 C9.66 1 10.32 1 11 1 C10.79375 1.61875 10.5875 2.2375 10.375 2.875 C10.25125 3.57625 10.1275 4.2775 10 5 C10.66 5.66 11.32 6.32 12 7 C8.20431539 7.97798721 5.4994001 7.92653069 1.6875 7.0625 C0.80449219 6.86785156 -0.07851562 6.67320313 -0.98828125 6.47265625 C-1.98408203 6.23869141 -1.98408203 6.23869141 -3 6 C-2.34 5.34 -1.68 4.68 -1 4 C-1 3.01 -1 2.02 -1 1 C-0.67 0.67 -0.34 0.34 0 0 Z " fill="#BE9780" transform="translate(115,79)"/>
<path d="M0 0 C0 1.65 0 3.3 0 5 C1.32 5.33 2.64 5.66 4 6 C3.01 6.495 3.01 6.495 2 7 C2 7.66 2 8.32 2 9 C0.02 9.99 0.02 9.99 -2 11 C-4.0625 9.375 -4.0625 9.375 -6 7 C-5.875 3.8125 -5.875 3.8125 -5 1 C-3 0 -3 0 0 0 Z " fill="#987763" transform="translate(72,118)"/>
<path d="M0 0 C1.65 0.33 3.3 0.66 5 1 C5.33 1.99 5.66 2.98 6 4 C3.36 4.66 0.72 5.32 -2 6 C-2 7.65 -2 9.3 -2 11 C-3.65 10.67 -5.3 10.34 -7 10 C-6.67 8.35 -6.34 6.7 -6 5 C-4.68 4.67 -3.36 4.34 -2 4 C-2 3.34 -2 2.68 -2 2 C-1.34 2 -0.68 2 0 2 C0 1.34 0 0.68 0 0 Z " fill="#936952" transform="translate(85,93)"/>
<path d="M0 0 C2.33944736 0.28730055 4.6739143 0.61936779 7 1 C7.33 3.31 7.66 5.62 8 8 C8.78375 8.309375 9.5675 8.61875 10.375 8.9375 C13 10 13 10 15 11 C15 11.99 15 12.98 15 14 C14.46375 13.71125 13.9275 13.4225 13.375 13.125 C10.94581306 11.86581499 10.94581306 11.86581499 7.875 11.3125 C6.92625 10.879375 5.9775 10.44625 5 10 C4.25740651 7.68970915 3.588562 5.354248 3 3 C1.01432266 1.50256112 1.01432266 1.50256112 -1 1 C-0.67 0.67 -0.34 0.34 0 0 Z " fill="#AA7B5E" transform="translate(104,88)"/>
<path d="M0 0 C3.465 1.485 3.465 1.485 7 3 C7 3.66 7 4.32 7 5 C9.475 5.99 9.475 5.99 12 7 C12 7.99 12 8.98 12 10 C12.66 10.33 13.32 10.66 14 11 C12.359375 11.77734375 12.359375 11.77734375 10 12 C7.203125 10.12890625 7.203125 10.12890625 4.25 7.5625 C2.77273437 6.29599609 2.77273437 6.29599609 1.265625 5.00390625 C0.51796875 4.34261719 -0.2296875 3.68132812 -1 3 C-0.67 2.01 -0.34 1.02 0 0 Z " fill="#A46057" transform="translate(81,163)"/>
<path d="M0 0 C2.31 0.66 4.62 1.32 7 2 C7.33 3.98 7.66 5.96 8 8 C10.31 8.66 12.62 9.32 15 10 C14.34 11.32 13.68 12.64 13 14 C10.41476891 13.62031163 9.2334296 13.24427352 7.40234375 11.328125 C6.91894531 10.64234375 6.43554688 9.9565625 5.9375 9.25 C5.17373047 8.17492187 5.17373047 8.17492187 4.39453125 7.078125 C2.84238143 4.76511743 1.36583686 2.42815442 0 0 Z " fill="#8E7565" transform="translate(114,86)"/>
<path d="M0 0 C0.66 0.33 1.32 0.66 2 1 C2.625 3.5625 2.625 3.5625 3 6 C1.4375 7.5625 1.4375 7.5625 -1 9 C-4.53323032 8.87602701 -7.01800145 8.64443655 -10 6.6875 C-11 5 -11 5 -10.6875 2.8125 C-10.460625 2.214375 -10.23375 1.61625 -10 1 C-6.125 2.75 -6.125 2.75 -5 5 C-3.35 5 -1.7 5 0 5 C-0.66 4.34 -1.32 3.68 -2 3 C-1.34 2.01 -0.68 1.02 0 0 Z " fill="#BB9D8C" transform="translate(83,79)"/>
<path d="M0 0 C5.00655974 1.34322334 9.19711129 3.46949451 13 7 C13.33 7.99 13.66 8.98 14 10 C12.88625 9.9690625 12.88625 9.9690625 11.75 9.9375 C9.29537721 9.99328688 7.33890739 10.3069904 5 11 C5.66 10.67 6.32 10.34 7 10 C6.30490919 6.80674569 6.30490919 6.80674569 3.5 5.5625 C1 4 1 4 0.1875 1.8125 C0.125625 1.214375 0.06375 0.61625 0 0 Z " fill="#AC8975" transform="translate(113,93)"/>
<path d="M0 0 C1.52138223 4.60730646 -0.31963827 7.63789795 -2.3125 11.8125 C-4.66133789 16.82555082 -6.61726587 21.63049943 -8 27 C-8.99 26.67 -9.98 26.34 -11 26 C-10.32846098 22.72530411 -9.11290701 20.07859435 -7.5625 17.125 C-5.05522981 12.21161749 -3.24105043 7.37788519 -2 2 C-1.34 2 -0.68 2 0 2 C0 1.34 0 0.68 0 0 Z " fill="#6A5239" transform="translate(144,117)"/>
<path d="M0 0 C1.44754255 1.44754255 1.55733561 3.03962913 2 5 C1.01 5.33 0.02 5.66 -1 6 C-1 6.99 -1 7.98 -1 9 C-1.99 9 -2.98 9 -4 9 C-4.2475 8.38125 -4.495 7.7625 -4.75 7.125 C-6.20628639 4.64931313 -7.37812506 4.04874998 -10 3 C-3.375 -1.125 -3.375 -1.125 0 0 Z " fill="#CC9F88" transform="translate(119,107)"/>
<path d="M0 0 C0.66 0 1.32 0 2 0 C2 0.66 2 1.32 2 2 C3.3921875 2.4640625 3.3921875 2.4640625 4.8125 2.9375 C6.875 3.625 8.9375 4.3125 11 5 C12.39439664 5.06665376 13.79169875 5.08538199 15.1875 5.0625 C16.445625 5.041875 17.70375 5.02125 19 5 C19 5.33 19 5.66 19 6 C13.6822785 7.24200752 8.41798672 8.30834212 3 9 C2.87625 8.360625 2.7525 7.72125 2.625 7.0625 C2.315625 6.0415625 2.315625 6.0415625 2 5 C1.34 4.67 0.68 4.34 0 4 C0 2.68 0 1.36 0 0 Z " fill="#725442" transform="translate(64,72)"/>
<path d="M0 0 C2.375 2.5 2.375 2.5 4 5 C2.35 6.65 0.7 8.3 -1 10 C-1.94401042 8.2421875 -2.88802083 6.484375 -3.83203125 4.7265625 C-5.04763493 2.69497635 -5.04763493 2.69497635 -8 1 C-5.12529507 -0.43735246 -3.18105412 -0.38172649 0 0 Z " fill="#564A4B" transform="translate(110,164)"/>
<path d="M0 0 C0.33 0 0.66 0 1 0 C1 7.26 1 14.52 1 22 C0.01 22 -0.98 22 -2 22 C-2.33 21.34 -2.66 20.68 -3 20 C-3.99 20.33 -4.98 20.66 -6 21 C-6.35412344 22.32796291 -6.68521554 23.66216607 -7 25 C-8.5625 26.75 -8.5625 26.75 -10 28 C-10.25 21.375 -10.25 21.375 -8 18 C-4.9375 17.75 -4.9375 17.75 -2 18 C-1.67 18.33 -1.34 18.66 -1 19 C-0.67 12.73 -0.34 6.46 0 0 Z " fill="#5C4C3C" transform="translate(48,54)"/>
<path d="M0 0 C5.4389165 -0.21755666 9.87080814 -0.10428384 15 2 C11.5980513 4.09350689 8.94727588 4.17942163 5 4 C5 4.66 5 5.32 5 6 C3.35 6.33 1.7 6.66 0 7 C0.33 6.01 0.66 5.02 1 4 C1.66 3.67 2.32 3.34 3 3 C2.01 2.67 1.02 2.34 0 2 C0 1.34 0 0.68 0 0 Z " fill="#A8826E" transform="translate(81,55)"/>
<path d="M0 0 C-0.33 0.66 -0.66 1.32 -1 2 C-1.66 1.67 -2.32 1.34 -3 1 C-5.25120742 0.91426606 -7.50499303 0.89287812 -9.7578125 0.90234375 C-10.42086395 0.9037587 -11.08391541 0.90517365 -11.76705933 0.90663147 C-13.88641863 0.91223246 -16.00567259 0.924785 -18.125 0.9375 C-19.56119639 0.94251488 -20.99739444 0.94707781 -22.43359375 0.95117188 C-25.95576345 0.96220218 -29.47787145 0.97946741 -33 1 C-33 0.67 -33 0.34 -33 0 C-6.66611018 -3.33305509 -6.66611018 -3.33305509 0 0 Z " fill="#A38275" transform="translate(123,123)"/>
<path d="M0 0 C3.75 0.1875 3.75 0.1875 7 1 C7.79953138 4.28696233 8.09658936 5.71023192 7 9 C6.34 9 5.68 9 5 9 C5 8.01 5 7.02 5 6 C2.03 5.67 -0.94 5.34 -4 5 C-2.4375 2.4375 -2.4375 2.4375 0 0 Z " fill="#B49587" transform="translate(118,117)"/>
<path d="M0 0 C2.97 0.33 5.94 0.66 9 1 C8.67 2.65 8.34 4.3 8 6 C6.68 6.33 5.36 6.66 4 7 C4 7.66 4 8.32 4 9 C2.68 9.33 1.36 9.66 0 10 C-0.33 9.34 -0.66 8.68 -1 8 C0.32 8 1.64 8 3 8 C3 7.34 3 6.68 3 6 C2.34 5.67 1.68 5.34 1 5 C1.66 3.68 2.32 2.36 3 1 C2.01 0.67 1.02 0.34 0 0 Z " fill="#C08C71" transform="translate(105,103)"/>
<path d="M0 0 C0 0.66 0 1.32 0 2 C0.66 2 1.32 2 2 2 C2.66 3.32 3.32 4.64 4 6 C2.68 6 1.36 6 0 6 C-0.48082031 5.50886719 -0.96164063 5.01773437 -1.45703125 4.51171875 C-2.91447405 2.78023849 -2.91447405 2.78023849 -5.26171875 2.70703125 C-6.46248047 2.75923828 -6.46248047 2.75923828 -7.6875 2.8125 C-8.89986328 2.85310547 -8.89986328 2.85310547 -10.13671875 2.89453125 C-10.75160156 2.92933594 -11.36648437 2.96414062 -12 3 C-12.33 2.01 -12.66 1.02 -13 0 C-8.38926889 -1.29676812 -4.66159911 -0.71109139 0 0 Z " fill="#724E2E" transform="translate(103,18)"/>
<path d="M0 0 C0.33 3.3 0.66 6.6 1 10 C-0.65 10 -2.3 10 -4 10 C-5 9 -5 9 -5.25 5.5625 C-5.1675 4.386875 -5.085 3.21125 -5 2 C-2 0 -2 0 0 0 Z " fill="#CAA694" transform="translate(103,61)"/>
<path d="M0 0 C2 1 2 1 2.6875 3 C3.120625 3.66 3.55375 4.32 4 5 C6.32495277 5.38749213 8.6599583 5.71758117 11 6 C13.4375 7.5625 13.4375 7.5625 15 9 C15.33 8.34 15.66 7.68 16 7 C16 7.99 16 8.98 16 10 C15.34 10 14.68 10 14 10 C14 10.66 14 11.32 14 12 C11.69 12.33 9.38 12.66 7 13 C7 12.01 7 11.02 7 10 C7.99 9.34 8.98 8.68 10 8 C8.906875 7.9175 7.81375 7.835 6.6875 7.75 C3 7 3 7 1.0625 5.125 C0 3 0 3 0 0 Z " fill="#C08968" transform="translate(104,93)"/>
<path d="M0 0 C1.14662109 -0.03867188 1.14662109 -0.03867188 2.31640625 -0.078125 C4.93473244 0.32691994 5.78268701 1.24096187 7.4375 3.25 C4.01517028 4.39077657 1.35076783 4.34815117 -2.25 4.3125 C-4.01923828 4.29896484 -4.01923828 4.29896484 -5.82421875 4.28515625 C-6.72785156 4.27355469 -7.63148437 4.26195313 -8.5625 4.25 C-8.5625 3.26 -8.5625 2.27 -8.5625 1.25 C-5.66691295 0.43211209 -3.00785913 0.06107328 0 0 Z " fill="#866F62" transform="translate(79.5625,73.75)"/>
<path d="M0 0 C1.8125 1.5 1.8125 1.5 3 3 C2.67 3.99 2.34 4.98 2 6 C0.68 5.67 -0.64 5.34 -2 5 C-2 5.66 -2 6.32 -2 7 C-2.66 7 -3.32 7 -4 7 C-4.33 6.01 -4.66 5.02 -5 4 C-7.01508358 3.26676204 -7.01508358 3.26676204 -9 3 C-5.97244082 0.30883629 -4.06495202 -0.62537723 0 0 Z " fill="#B39283" transform="translate(119,48)"/>
<path d="M0 0 C1.65279526 0.02655093 3.30535788 0.07420039 4.95703125 0.140625 C5.80201172 0.15867187 6.64699219 0.17671875 7.51757812 0.1953125 C9.60204698 0.24241914 11.68593269 0.31416267 13.76953125 0.390625 C13.76953125 1.050625 13.76953125 1.710625 13.76953125 2.390625 C14.42953125 2.390625 15.08953125 2.390625 15.76953125 2.390625 C15.43953125 3.710625 15.10953125 5.030625 14.76953125 6.390625 C14.10953125 5.400625 13.44953125 4.410625 12.76953125 3.390625 C9.34720153 2.24984843 6.68279908 2.29247383 3.08203125 2.328125 C1.90253906 2.33714844 0.72304687 2.34617187 -0.4921875 2.35546875 C-1.39582031 2.36707031 -2.29945312 2.37867187 -3.23046875 2.390625 C-3.56046875 3.380625 -3.89046875 4.370625 -4.23046875 5.390625 C-5.22046875 5.060625 -6.21046875 4.730625 -7.23046875 4.390625 C-5.50328056 0.68846635 -3.87041905 0.10209146 0 0 Z " fill="#B18F84" transform="translate(95.23046875,125.609375)"/>
<path d="M0 0 C4.455 0.99 4.455 0.99 9 2 C9 2.99 9 3.98 9 5 C2.73 5 -3.54 5 -10 5 C-10 4.67 -10 4.34 -10 4 C-6.7 4 -3.4 4 0 4 C0 2.68 0 1.36 0 0 Z " fill="#D5A488" transform="translate(105,98)"/>
<path d="M0 0 C1.98 0 3.96 0 6 0 C6 0.66 6 1.32 6 2 C8.64 2.66 11.28 3.32 14 4 C14 5.32 14 6.64 14 8 C9.25 6.125 9.25 6.125 7 5 C7 4.34 7 3.68 7 3 C4.36 3 1.72 3 -1 3 C-0.67 2.01 -0.34 1.02 0 0 Z " fill="#A27A61" transform="translate(79,69)"/>
<path d="M0 0 C0.99 0 1.98 0 3 0 C2.40049704 3.68266103 1.75241109 7.34543185 1 11 C0.67 11 0.34 11 0 11 C0 9.35 0 7.7 0 6 C-1.32 6.33 -2.64 6.66 -4 7 C-4.33 5.02 -4.66 3.04 -5 1 C-3.02 1.99 -3.02 1.99 -1 3 C-0.67 2.01 -0.34 1.02 0 0 Z " fill="#A37F6B" transform="translate(72,112)"/>
<path d="M0 0 C-0.66 0.61875 -1.32 1.2375 -2 1.875 C-4.2284549 3.75637427 -4.2284549 3.75637427 -4 6 C-6.31 5.67 -8.62 5.34 -11 5 C-11 3.68 -11 2.36 -11 1 C-9.5437328 0.63743142 -8.08488815 0.28520207 -6.625 -0.0625 C-5.40683594 -0.35833984 -5.40683594 -0.35833984 -4.1640625 -0.66015625 C-2 -1 -2 -1 0 0 Z " fill="#8E6E5D" transform="translate(115,80)"/>
<path d="M0 0 C0.72832031 -0.01224609 1.45664063 -0.02449219 2.20703125 -0.03710938 C4.09782978 -0.04235188 5.98815581 0.06516615 7.875 0.1875 C8.535 0.8475 9.195 1.5075 9.875 2.1875 C7.875 3.1875 7.875 3.1875 5.83203125 2.72265625 C1.68702933 1.97250399 -2.25200188 2.337598 -6.4375 2.625 C-7.27345703 2.67720703 -8.10941406 2.72941406 -8.97070312 2.78320312 C-11.02250789 2.91217371 -13.07381306 3.04905021 -15.125 3.1875 C-10.20051521 -0.09548986 -5.8134568 0.00519987 0 0 Z " fill="#2E3539" transform="translate(100.125,10.8125)"/>
<path d="M0 0 C1.98 0.66 3.96 1.32 6 2 C6.625 4.3125 6.625 4.3125 7 7 C6.01 8.485 6.01 8.485 5 10 C2.375 10.1875 2.375 10.1875 0 10 C0 9.34 0 8.68 0 8 C0.99 7.67 1.98 7.34 3 7 C3.33 6.01 3.66 5.02 4 4 C3.01 4 2.02 4 1 4 C0.67 2.68 0.34 1.36 0 0 Z " fill="#B08A76" transform="translate(122,61)"/>
<path d="M0 0 C0.33 0.99 0.66 1.98 1 3 C-1.25 5.5 -1.25 5.5 -4 8 C-5.32 8 -6.64 8 -8 8 C-6.9802693 4.22699642 -6.34127338 3.19793856 -2.875 1.1875 C-1.92625 0.795625 -0.9775 0.40375 0 0 Z " fill="#826A5D" transform="translate(123,146)"/>
<path d="M0 0 C1.99897128 0.33944795 3.99875639 0.67421616 6 1 C6 1.66 6 2.32 6 3 C4.22925083 3.02705729 2.45838289 3.04642195 0.6875 3.0625 C-0.29863281 3.07410156 -1.28476563 3.08570313 -2.30078125 3.09765625 C-5 3 -5 3 -8 2 C-8 1.34 -8 0.68 -8 0 C-4.60091558 -1.13302814 -3.4175633 -0.79478216 0 0 Z " fill="#DDB49E" transform="translate(100,141)"/>
<path d="M0 0 C0 1.32 0 2.64 0 4 C-3.63 4 -7.26 4 -11 4 C-11 3.01 -11 2.02 -11 1 C-7.26513121 0.4254048 -3.78706732 0 0 0 Z " fill="#E6C4B4" transform="translate(105,98)"/>
<path d="M0 0 C0.33 0.99 0.66 1.98 1 3 C-0.6188996 4.03048037 -2.24532489 5.04914678 -3.875 6.0625 C-4.77992187 6.63097656 -5.68484375 7.19945313 -6.6171875 7.78515625 C-7.40351562 8.18605469 -8.18984375 8.58695313 -9 9 C-9.66 8.67 -10.32 8.34 -11 8 C-10.67 6.68 -10.34 5.36 -10 4 C-8.02 4.495 -8.02 4.495 -6 5 C-6.33 4.01 -6.66 3.02 -7 2 C-6.21625 2.04125 -5.4325 2.0825 -4.625 2.125 C-1.83883881 2.28728734 -1.83883881 2.28728734 0 0 Z " fill="#9D7C6B" transform="translate(80,91)"/>
<path d="M0 0 C2.64 1.65 5.28 3.3 8 5 C7.01 6.485 7.01 6.485 6 8 C3.375 8.1875 3.375 8.1875 1 8 C-0.35439668 5.29120665 -0.06501451 2.99066732 0 0 Z " fill="#8F725E" transform="translate(68,82)"/>
<path d="M0 0 C1.49080078 0.29197266 1.49080078 0.29197266 3.01171875 0.58984375 C4.15060547 0.82380859 4.15060547 0.82380859 5.3125 1.0625 C5.3125 1.3925 5.3125 1.7225 5.3125 2.0625 C2.6725 2.0625 0.0325 2.0625 -2.6875 2.0625 C-2.0275 2.7225 -1.3675 3.3825 -0.6875 4.0625 C-4.6475 3.7325 -8.6075 3.4025 -12.6875 3.0625 C-7.68621539 -0.68846346 -5.90763414 -1.18152683 0 0 Z " fill="#8C7467" transform="translate(125.6875,73.9375)"/>
<path d="M0 0 C0.721875 0.12375 1.44375 0.2475 2.1875 0.375 C-1.8125 4.375 -5.8125 8.375 -9.8125 12.375 C-8.40415136 6.99766881 -6.12498327 0.81666444 0 0 Z " fill="#80572F" transform="translate(66.8125,32.625)"/>
<path d="M0 0 C0.33 0 0.66 0 1 0 C1.26404456 6.86515862 0.25841946 13.25846717 -1 20 C-1.33 20 -1.66 20 -2 20 C-2.05407567 17.41638482 -2.093707 14.83390745 -2.125 12.25 C-2.14175781 11.52039063 -2.15851563 10.79078125 -2.17578125 10.0390625 C-2.21072239 6.1955376 -2.17499684 3.25393228 0 0 Z " fill="#B3B3B6" transform="translate(131,156)"/>
<path d="M0 0 C1.77007714 -0.08114106 3.54122098 -0.13925505 5.3125 -0.1875 C6.29863281 -0.22230469 7.28476563 -0.25710937 8.30078125 -0.29296875 C11 0 11 0 14 3 C9.71 3 5.42 3 1 3 C0.67 2.01 0.34 1.02 0 0 Z " fill="#926D5C" transform="translate(92,133)"/>
<path d="M0 0 C0.12117188 0.71285156 0.24234375 1.42570312 0.3671875 2.16015625 C1.31063969 7.55234841 2.37362209 12.77235672 4 18 C3.34 18 2.68 18 2 18 C-2.40774487 6.47835991 -2.40774487 6.47835991 -3 1 C-1 0 -1 0 0 0 Z " fill="#987965" transform="translate(44,83)"/>
<path d="M0 0 C1.32 0 2.64 0 4 0 C4 1.32 4 2.64 4 4 C4.99 4 5.98 4 7 4 C7 5.98 7 7.96 7 10 C3.57701423 8.85900474 2.85241234 7.99914379 1 5 C1 4.01 1 3.02 1 2 C0.34 1.67 -0.32 1.34 -1 1 C-0.67 0.67 -0.34 0.34 0 0 Z " fill="#815B42" transform="translate(152,73)"/>
<path d="M0 0 C4.62 0 9.24 0 14 0 C14 1.65 14 3.3 14 5 C13.34 5 12.68 5 12 5 C12 4.34 12 3.68 12 3 C11.30132812 2.95101562 10.60265625 2.90203125 9.8828125 2.8515625 C8.97273438 2.77679688 8.06265625 2.70203125 7.125 2.625 C6.22007813 2.55539063 5.31515625 2.48578125 4.3828125 2.4140625 C2 2 2 2 0 0 Z " fill="#D2AE98" transform="translate(82,64)"/>
<path d="M0 0 C0.33 0.66 0.66 1.32 1 2 C0.109375 4.09375 0.109375 4.09375 -1.25 6.5 C-1.90742187 7.69109375 -1.90742187 7.69109375 -2.578125 8.90625 C-4 11 -4 11 -7 13 C-6.74126898 8.60157266 -6.43893111 6.50477078 -3.5 3.125 C-2.2625 2.073125 -2.2625 2.073125 -1 1 C-0.67 0.67 -0.34 0.34 0 0 Z " fill="#594733" transform="translate(56,40)"/>
<path d="M0 0 C0.99 0 1.98 0 3 0 C3.04254356 1.99954746 3.04080783 4.00041636 3 6 C2 7 2 7 -0.72265625 7.09765625 C-2.37587891 7.08025391 -2.37587891 7.08025391 -4.0625 7.0625 C-5.16722656 7.05347656 -6.27195312 7.04445312 -7.41015625 7.03515625 C-8.69212891 7.01775391 -8.69212891 7.01775391 -10 7 C-10 6.67 -10 6.34 -10 6 C-7.36 5.67 -4.72 5.34 -2 5 C-1.34 3.35 -0.68 1.7 0 0 Z " fill="#B58A74" transform="translate(112,140)"/>
<path d="M0 0 C3.63 0.33 7.26 0.66 11 1 C11.66 2.65 12.32 4.3 13 6 C11 8 11 8 7.875 8.125 C6.92625 8.08375 5.9775 8.0425 5 8 C5 7.67 5 7.34 5 7 C5.804375 6.87625 6.60875 6.7525 7.4375 6.625 C8.283125 6.41875 9.12875 6.2125 10 6 C10.33 5.34 10.66 4.68 11 4 C10.01 4.33 9.02 4.66 8 5 C8 4.01 8 3.02 8 2 C7.236875 2.226875 6.47375 2.45375 5.6875 2.6875 C4.800625 2.790625 3.91375 2.89375 3 3 C2.01 2.01 1.02 1.02 0 0 Z " fill="#80624F" transform="translate(122,75)"/>
<path d="M0 0 C6.93 0 13.86 0 21 0 C21 0.33 21 0.66 21 1 C18.03 1 15.06 1 12 1 C12 1.66 12 2.32 12 3 C10.18674449 2.88648483 8.37436643 2.75887039 6.5625 2.625 C5.04849609 2.52058594 5.04849609 2.52058594 3.50390625 2.4140625 C2.67761719 2.27742187 1.85132812 2.14078125 1 2 C0.67 1.34 0.34 0.68 0 0 Z " fill="#AF8975" transform="translate(89,136)"/>
<path d="M0 0 C1.46055379 3.84209373 0.49637507 6.39037478 -0.8125 10.1875 C-1.34810547 11.78658203 -1.34810547 11.78658203 -1.89453125 13.41796875 C-3 16 -3 16 -5 17 C-3.57142857 3.57142857 -3.57142857 3.57142857 0 0 Z " fill="#947966" transform="translate(156,84)"/>
<path d="M0 0 C1.98 0 3.96 0 6 0 C6 1.65 6 3.3 6 5 C4.35 5.33 2.7 5.66 1 6 C0.67 4.02 0.34 2.04 0 0 Z " fill="#D4B09B" transform="translate(104,64)"/>
<path d="M0 0 C2.64 0.33 5.28 0.66 8 1 C7.01 1.495 7.01 1.495 6 2 C6 3.32 6 4.64 6 6 C3.36 6 0.72 6 -2 6 C-0.68 4.68 0.64 3.36 2 2 C1.34 1.34 0.68 0.68 0 0 Z " fill="#CAC5C4" transform="translate(84,157)"/>
<path d="M0 0 C1.98 0 3.96 0 6 0 C5.67 0.99 5.34 1.98 5 3 C7.31 3 9.62 3 12 3 C8.55549263 5.29633824 6.06187717 5.54016485 2 6 C2 4.68 2 3.36 2 2 C1.34 1.34 0.68 0.68 0 0 Z " fill="#9C8A81" transform="translate(107,152)"/>
<path d="M0 0 C4.05281712 1.22527029 7.44360764 2.69880494 11 5 C10.67 5.99 10.34 6.98 10 8 C8.35 7.67 6.7 7.34 5 7 C4.67 6.01 4.34 5.02 4 4 C2.70644173 2.62804426 1.37701298 1.28817344 0 0 Z " fill="#15181B" transform="translate(174,148)"/>
<path d="M0 0 C-1.98 2.31 -3.96 4.62 -6 7 C-6.66 6.34 -7.32 5.68 -8 5 C-7.75 2.4375 -7.75 2.4375 -7 0 C-4.3333581 -1.33332095 -2.83319697 -0.67102033 0 0 Z " fill="#BE7366" transform="translate(99,184)"/>
<path d="M0 0 C1.65 1.65 3.3 3.3 5 5 C7.15811388 4.05270463 7.15811388 4.05270463 9 2 C9.33 2.99 9.66 3.98 10 5 C9.01 5.99 8.02 6.98 7 8 C4.36 7.01 1.72 6.02 -1 5 C-0.34 4.67 0.32 4.34 1 4 C0.67 2.68 0.34 1.36 0 0 Z " fill="#735353" transform="translate(95,178)"/>
<path d="M0 0 C0.66 1.32 1.32 2.64 2 4 C0.25 6.0625 0.25 6.0625 -2 8 C-4.25 7.75 -4.25 7.75 -6 7 C-6 6.34 -6 5.68 -6 5 C-4.04072937 3.2856382 -2.04119788 1.61594832 0 0 Z " fill="#D8D8D9" transform="translate(78,165)"/>
<path d="M0 0 C2.31 0 4.62 0 7 0 C7.66 1.32 8.32 2.64 9 4 C7.25181409 4.22304441 5.50129677 4.4278645 3.75 4.625 C2.77546875 4.74101562 1.8009375 4.85703125 0.796875 4.9765625 C-2 5 -2 5 -6 3 C-2.04 3 1.92 3 6 3 C6 2.34 6 1.68 6 1 C4.02 1 2.04 1 0 1 C0 0.67 0 0.34 0 0 Z " fill="#D2A58D" transform="translate(100,141)"/>
<path d="M0 0 C4.95 0 9.9 0 15 0 C14.01 1.485 14.01 1.485 13 3 C10.46875 3.3984375 10.46875 3.3984375 7.5 3.375 C6.5203125 3.38273437 5.540625 3.39046875 4.53125 3.3984375 C3.6959375 3.26695313 2.860625 3.13546875 2 3 C1.34 2.01 0.68 1.02 0 0 Z " fill="#99674E" transform="translate(92,105)"/>
<path d="M0 0 C-0.33 2.31 -0.66 4.62 -1 7 C-2.32 6.67 -3.64 6.34 -5 6 C-5 5.34 -5 4.68 -5 4 C-5.66 4 -6.32 4 -7 4 C-7 3.34 -7 2.68 -7 2 C-2.25 0 -2.25 0 0 0 Z " fill="#917668" transform="translate(132,85)"/>
<path d="M0 0 C0.33 0.66 0.66 1.32 1 2 C1.66 2 2.32 2 3 2 C2.67 2.99 2.34 3.98 2 5 C-1.62528568 5.20140476 -3.86501708 4.85776765 -7 3 C-7 2.34 -7 1.68 -7 1 C-2.25 0 -2.25 0 0 0 Z " fill="#60473A" transform="translate(130,77)"/>
<path d="M0 0 C1.22589844 0.01353516 1.22589844 0.01353516 2.4765625 0.02734375 C3.41628906 0.04474609 3.41628906 0.04474609 4.375 0.0625 C3.385 0.3925 2.395 0.7225 1.375 1.0625 C1.375 1.7225 1.375 2.3825 1.375 3.0625 C-0.935 3.0625 -3.245 3.0625 -5.625 3.0625 C-5.625 3.7225 -5.625 4.3825 -5.625 5.0625 C-6.285 5.0625 -6.945 5.0625 -7.625 5.0625 C-7.25 3.125 -7.25 3.125 -6.625 1.0625 C-4.21954362 -0.14022819 -2.67503047 -0.03821472 0 0 Z " fill="#C3A194" transform="translate(98.625,126.9375)"/>
<path d="M0 0 C2.0625 -0.375 2.0625 -0.375 5 0 C7.53572282 1.79177109 9.77174488 3.84238121 12 6 C11.01 6.495 11.01 6.495 10 7 C8.125 6.328125 8.125 6.328125 6 5.25 C5.29875 4.90453125 4.5975 4.5590625 3.875 4.203125 C2 3 2 3 0 0 Z " fill="#9F928A" transform="translate(70,149)"/>
<path d="M0 0 C0.66 0 1.32 0 2 0 C2.33 0.99 2.66 1.98 3 3 C3.66 3.33 4.32 3.66 5 4 C5.625 6.0625 5.625 6.0625 6 8 C3.625 7.75 3.625 7.75 1 7 C-0.375 5.125 -0.375 5.125 -1 3 C-0.67 2.01 -0.34 1.02 0 0 Z " fill="#997763" transform="translate(76,141)"/>
<path d="M0 0 C4.85963179 0.60745397 8.7405518 2.72758967 13 5 C13 5.66 13 6.32 13 7 C6.86592242 6.63195535 4.26093821 5.15701288 0 1 C0 0.67 0 0.34 0 0 Z " fill="#192024" transform="translate(155,139)"/>
<path d="M0 0 C-3.3 2.31 -6.6 4.62 -10 7 C-10.66 6.01 -11.32 5.02 -12 4 C-10.56988027 3.13353333 -9.13059381 2.28218171 -7.6875 1.4375 C-6.48673828 0.72400391 -6.48673828 0.72400391 -5.26171875 -0.00390625 C-3 -1 -3 -1 0 0 Z " fill="#221F21" transform="translate(40,139)"/>
<path d="M0 0 C1.41419105 2.65606471 2.41537612 5.13952546 3.125 8.0625 C3.29257812 8.73410156 3.46015625 9.40570313 3.6328125 10.09765625 C4 12 4 12 4 15 C3.34 15 2.68 15 2 15 C-0.59227518 10.13948404 -0.18689553 5.34728867 0 0 Z " fill="#655441" transform="translate(50,111)"/>
<path d="M0 0 C4.19360449 0.67097672 7.40334352 2.8558394 11 5 C11 5.99 11 6.98 11 8 C10.46375 7.71125 9.9275 7.4225 9.375 7.125 C6.92449903 5.88011094 6.92449903 5.88011094 3.8125 5.125 C2.884375 4.75375 1.95625 4.3825 1 4 C0.125 1.875 0.125 1.875 0 0 Z " fill="#9F6F52" transform="translate(108,94)"/>
<path d="M0 0 C0.66 0 1.32 0 2 0 C2 0.99 2 1.98 2 3 C4.97 3.495 4.97 3.495 8 4 C8 4.33 8 4.66 8 5 C2.06 5.495 2.06 5.495 -4 6 C-4 5.01 -4 4.02 -4 3 C-2.68 3 -1.36 3 0 3 C0 2.01 0 1.02 0 0 Z " fill="#A37E6A" transform="translate(93,75)"/>
<path d="M0 0 C2.4375 0.75 2.4375 0.75 5 2 C5.8125 4.125 5.8125 4.125 6 6 C4.02 6 2.04 6 0 6 C0 4.02 0 2.04 0 0 Z " fill="#D0B5AD" transform="translate(104,127)"/>
<path d="M0 0 C0.66 0.33 1.32 0.66 2 1 C1.23721377 2.2964351 0.46443041 3.58699148 -0.3125 4.875 C-0.74175781 5.59429687 -1.17101562 6.31359375 -1.61328125 7.0546875 C-3 9 -3 9 -6 11 C-5.44509362 7.67056175 -4.79000672 4.88389972 -3 2 C-2.01 1.34 -1.02 0.68 0 0 Z " fill="#A0785E" transform="translate(71,60)"/>
<path d="M0 0 C3.63 0 7.26 0 11 0 C10.67 0.99 10.34 1.98 10 3 C9.2575 2.979375 8.515 2.95875 7.75 2.9375 C5.29537721 2.99328688 3.33890739 3.3069904 1 4 C1.66 3.34 2.32 2.68 3 2 C2.01 1.34 1.02 0.68 0 0 Z " fill="#A9785A" transform="translate(93,80)"/>
<path d="M0 0 C0.66 0 1.32 0 2 0 C1.67 2.31 1.34 4.62 1 7 C-0.32 6.67 -1.64 6.34 -3 6 C-2.42655063 3.13275314 -2.1385485 2.1385485 0 0 Z " fill="#9B765F" transform="translate(151,75)"/>
<path d="M0 0 C0.99 0.33 1.98 0.66 3 1 C2.67 1.99 2.34 2.98 2 4 C2.66 4 3.32 4 4 4 C4.33 4.99 4.66 5.98 5 7 C3.02 7 1.04 7 -1 7 C-0.34 6.34 0.32 5.68 1 5 C0.34 4.67 -0.32 4.34 -1 4 C-0.67 2.68 -0.34 1.36 0 0 Z M5 2 C5.33 2.66 5.66 3.32 6 4 C5.34 3.67 4.68 3.34 4 3 C4.33 2.67 4.66 2.34 5 2 Z " fill="#A47D67" transform="translate(105,74)"/>
<path d="M0 0 C0.66 0 1.32 0 2 0 C3.7143618 1.95927063 5.38405168 3.95880212 7 6 C5.35 6.33 3.7 6.66 2 7 C0.5393715 4.35261084 0 3.10551666 0 0 Z " fill="#6E484D" transform="translate(87,178)"/>
<path d="M0 0 C-4.56327794 3.53286034 -8.49633208 3.32374517 -14 3 C-13.67 2.01 -13.34 1.02 -13 0 C-12.34 0 -11.68 0 -11 0 C-11 0.66 -11 1.32 -11 2 C-9.9275 1.484375 -8.855 0.96875 -7.75 0.4375 C-4.80304013 -0.84170773 -3.06798204 -1.3499121 0 0 Z " fill="#8C7A70" transform="translate(126,152)"/>
<path d="M0 0 C0.99 0.33 1.98 0.66 3 1 C3 1.66 3 2.32 3 3 C3.99 3.66 4.98 4.32 6 5 C6 5.66 6 6.32 6 7 C5.34 7 4.68 7 4 7 C4 6.34 4 5.68 4 5 C2.35 5.33 0.7 5.66 -1 6 C-0.67 4.02 -0.34 2.04 0 0 Z " fill="#BF937F" transform="translate(83,140)"/>
<path d="M0 0 C-1.1875 1.5 -1.1875 1.5 -3 3 C-5.6875 3.1875 -5.6875 3.1875 -8 3 C-8.33 2.01 -8.66 1.02 -9 0 C-5.67465243 -1.10844919 -3.37817425 -0.84454356 0 0 Z " fill="#B48975" transform="translate(106,116)"/>
<path d="M0 0 C7.75 0.875 7.75 0.875 10 2 C10 2.66 10 3.32 10 4 C2.25 3.125 2.25 3.125 0 2 C0 1.34 0 0.68 0 0 Z " fill="#C89477" transform="translate(82,106)"/>
<path d="M0 0 C0.33 0 0.66 0 1 0 C1.05437607 1.58294782 1.09296271 3.16644256 1.125 4.75 C1.14820313 5.63171875 1.17140625 6.5134375 1.1953125 7.421875 C0.99139502 10.1135858 0.36551721 11.69904974 -1 14 C-1.93402724 8.58264203 -2.20808081 5.19548425 0 0 Z " fill="#85664A" transform="translate(144,97)"/>
<path d="M0 0 C0.66 0 1.32 0 2 0 C1.67 2.97 1.34 5.94 1 9 C0.01 9 -0.98 9 -2 9 C-1.125 1.125 -1.125 1.125 0 0 Z " fill="#AB8065" transform="translate(150,88)"/>
<path d="M0 0 C1.08642103 3.2592631 0.92167347 3.8663102 0 7 C-0.34060811 8.66519519 -0.67558396 10.33157466 -1 12 C-1.66 11.67 -2.32 11.34 -3 11 C-2.53199289 6.94393835 -2.12046792 3.53411321 0 0 Z " fill="#AD746B" transform="translate(88,188)"/>
<path d="M0 0 C2.62386487 3.06117568 3 3.73173127 3 8 C1.35 8 -0.3 8 -2 8 C-1.34 5.36 -0.68 2.72 0 0 Z " fill="#82807F" transform="translate(103,192)"/>
<path d="M0 0 C0.66 0.33 1.32 0.66 2 1 C1.525625 1.886875 1.05125 2.77375 0.5625 3.6875 C-0.79737149 6.57042756 -1.54060386 8.87610623 -2 12 C-2.99 11.67 -3.98 11.34 -5 11 C-4.32902328 6.80639551 -2.1441606 3.59665648 0 0 Z " fill="#5F4B3D" transform="translate(138,132)"/>
<path d="M0 0 C0.33 0 0.66 0 1 0 C1.34833144 4.87664009 0.41685712 7.77050005 -2 12 C-2.33 12 -2.66 12 -3 12 C-3.125 6.25 -3.125 6.25 -2 4 C-1.34 4 -0.68 4 0 4 C0 2.68 0 1.36 0 0 Z " fill="#816245" transform="translate(142,113)"/>
<path d="M0 0 C0.99 0.66 1.98 1.32 3 2 C2.67 2.99 2.34 3.98 2 5 C-1.0625 6.1875 -1.0625 6.1875 -4 7 C-2.92598892 4.08482708 -2.22189824 2.22189824 0 0 Z " fill="#D4D2D2" transform="translate(114,168)"/>
<path d="M0 0 C2 1.125 2 1.125 4 3 C4.25 6.1875 4.25 6.1875 4 9 C1.4375 6.75 1.4375 6.75 -1 4 C-0.8125 1.6875 -0.8125 1.6875 0 0 Z " fill="#775D4B" transform="translate(60,133)"/>
<path d="M0 0 C0.33 0.99 0.66 1.98 1 3 C1.66 3 2.32 3 3 3 C3 3.66 3 4.32 3 5 C4.32 5.33 5.64 5.66 7 6 C7 6.33 7 6.66 7 7 C4.125 7.125 4.125 7.125 1 7 C0.34 6.34 -0.32 5.68 -1 5 C-0.625 2.375 -0.625 2.375 0 0 Z " fill="#AE7B5E" transform="translate(83,99)"/>
<path d="M0 0 C0.33 0.99 0.66 1.98 1 3 C0.34 3 -0.32 3 -1 3 C-1 3.66 -1 4.32 -1 5 C-3.31 5.33 -5.62 5.66 -8 6 C-8 5.01 -8 4.02 -8 3 C-6.35 3 -4.7 3 -3 3 C-2.67 2.34 -2.34 1.68 -2 1 C-1.34 1.33 -0.68 1.66 0 2 C0 1.34 0 0.68 0 0 Z " fill="#B08067" transform="translate(119,100)"/>
<path d="M0 0 C0 0.66 0 1.32 0 2 C-2.63892176 3.78305524 -4.97178863 4.99059621 -8 6 C-8.33 5.01 -8.66 4.02 -9 3 C-3.375 0 -3.375 0 0 0 Z " fill="#9A735A" transform="translate(115,72)"/>
<path d="M0 0 C0 1.32 0 2.64 0 4 C-2.16874252 3.49396008 -3.99967627 3.00016187 -6 2 C-6 1.34 -6 0.68 -6 0 C-3.50907189 -1.24546405 -2.58919267 -0.7767578 0 0 Z " fill="#785A43" transform="translate(136,59)"/>
<path d="M0 0 C0.33 0 0.66 0 1 0 C1.06058594 0.90363281 1.12117188 1.80726562 1.18359375 2.73828125 C1.26738281 3.91777344 1.35117187 5.09726563 1.4375 6.3125 C1.51871094 7.48425781 1.59992187 8.65601563 1.68359375 9.86328125 C1.8867371 13.02590958 1.8867371 13.02590958 3 16 C2.01 16.33 1.02 16.66 0 17 C0 11.39 0 5.78 0 0 Z " fill="#C31A18" transform="translate(28,126)"/>
<path d="M0 0 C1.65 0.33 3.3 0.66 5 1 C5.33 1.99 5.66 2.98 6 4 C3.36 4.66 0.72 5.32 -2 6 C-1.01 4.68 -0.02 3.36 1 2 C0.67 1.34 0.34 0.68 0 0 Z " fill="#A36F4F" transform="translate(85,93)"/>
<path d="M0 0 C0.598125 0.350625 1.19625 0.70125 1.8125 1.0625 C0.8225 2.0525 -0.1675 3.0425 -1.1875 4.0625 C-2.5075 3.4025 -3.8275 2.7425 -5.1875 2.0625 C-5.1875 1.4025 -5.1875 0.7425 -5.1875 0.0625 C-2.1875 -0.9375 -2.1875 -0.9375 0 0 Z " fill="#BA8C73" transform="translate(94.1875,42.9375)"/>
<path d="M0 0 C0.33 0.99 0.66 1.98 1 3 C-0.9375 5.6875 -0.9375 5.6875 -3 8 C-3.33 5.69 -3.66 3.38 -4 1 C-2 0 -2 0 0 0 Z " fill="#935259" transform="translate(109,172)"/>
<path d="M0 0 C3.3 0 6.6 0 10 0 C7 3 7 3 4.4375 3.375 C3.633125 3.25125 2.82875 3.1275 2 3 C1.34 2.01 0.68 1.02 0 0 Z " fill="#7B4E49" transform="translate(82,163)"/>
<path d="M0 0 C0.33 0.66 0.66 1.32 1 2 C-0.25 5.5625 -0.25 5.5625 -2 9 C-2.99 9.33 -3.98 9.66 -5 10 C-5 9.34 -5 8.68 -5 8 C-4.34 8 -3.68 8 -3 8 C-2.87625 7.236875 -2.7525 6.47375 -2.625 5.6875 C-2 3 -2 3 0 0 Z " fill="#91715F" transform="translate(124,135)"/>
<path d="M0 0 C2.875 -0.125 2.875 -0.125 6 0 C6.66 0.66 7.32 1.32 8 2 C2.04296875 3.7578125 2.04296875 3.7578125 0 4 C-0.99 3.34 -1.98 2.68 -3 2 C-2.01 2 -1.02 2 0 2 C0 1.34 0 0.68 0 0 Z " fill="#BD927C" transform="translate(96,109)"/>
<path d="M0 0 C-0.66 0.66 -1.32 1.32 -2 2 C-2.99 2 -3.98 2 -5 2 C-5 2.66 -5 3.32 -5 4 C-6.32 4.33 -7.64 4.66 -9 5 C-9.33 4.34 -9.66 3.68 -10 3 C-8.68 3 -7.36 3 -6 3 C-6 2.01 -6 1.02 -6 0 C-3 -1 -3 -1 0 0 Z " fill="#C3967E" transform="translate(114,108)"/>
<path d="M0 0 C1.32 0 2.64 0 4 0 C4 1.65 4 3.3 4 5 C2.02 4.34 0.04 3.68 -2 3 C-1.34 2.01 -0.68 1.02 0 0 Z " fill="#C8AE9F" transform="translate(115,79)"/>
<path d="M0 0 C0 0.33 0 0.66 0 1 C-1.98 1 -3.96 1 -6 1 C-6 1.66 -6 2.32 -6 3 C-7.65 3.33 -9.3 3.66 -11 4 C-8.97717134 -2.06848598 -5.42392029 -1.02338119 0 0 Z " fill="#B38972" transform="translate(92,58)"/>
<path d="M0 0 C-3.75 2 -3.75 2 -6 2 C-6 2.66 -6 3.32 -6 4 C-7.32 3.67 -8.64 3.34 -10 3 C-10 2.34 -10 1.68 -10 1 C-6.61981469 -0.04005702 -3.5219721 -0.08004482 0 0 Z " fill="#80685B" transform="translate(81,74)"/>
<path d="M0 0 C2.31 0.33 4.62 0.66 7 1 C7 2.32 7 3.64 7 5 C2.25 3.125 2.25 3.125 0 2 C0 1.34 0 0.68 0 0 Z " fill="#99725A" transform="translate(86,72)"/>
<path d="M0 0 C2.51699845 2.51699845 3.10964078 4.57554146 4 8 C3.625 10.375 3.625 10.375 3 12 C0.58314288 7.77050005 -0.34833144 4.87664009 0 0 Z " fill="#504A3A" transform="translate(144,40)"/>
<path d="M0 0 C0.66 0.66 1.32 1.32 2 2 C0.35 3.98 -1.3 5.96 -3 8 C-3.66 7.67 -4.32 7.34 -5 7 C-4.34 5.68 -3.68 4.36 -3 3 C-2.34 3 -1.68 3 -1 3 C-0.67 2.01 -0.34 1.02 0 0 Z " fill="#685753" transform="translate(92,192)"/>
<path d="M0 0 C0.99 0 1.98 0 3 0 C3 1.65 3 3.3 3 5 C1.68 5 0.36 5 -1 5 C-0.67 3.35 -0.34 1.7 0 0 Z " fill="#AD5F54" transform="translate(100,178)"/>
<path d="M0 0 C0.8971875 0.5259375 0.8971875 0.5259375 1.8125 1.0625 C1.8125 1.3925 1.8125 1.7225 1.8125 2.0625 C-1.4875 2.0625 -4.7875 2.0625 -8.1875 2.0625 C-3.10054348 -1.32880435 -3.10054348 -1.32880435 0 0 Z " fill="#D09977" transform="translate(103.1875,94.9375)"/>
<path d="M0 0 C1.33332095 2.6666419 0.67102033 4.16680303 0 7 C-1.65 7 -3.3 7 -5 7 C-3.35 4.69 -1.7 2.38 0 0 Z " fill="#896269" transform="translate(97,193)"/>
<path d="M0 0 C2 1.1875 2 1.1875 4 3 C4.25 5.6875 4.25 5.6875 4 8 C1.10067643 5.60490662 0.49831724 3.68754757 0 0 Z " fill="#615F5F" transform="translate(79,165)"/>
<path d="M0 0 C0 4.38968456 -2.12805101 5.76905739 -5 9 C-5.33 8.34 -5.66 7.68 -6 7 C-4.02 4.69 -2.04 2.38 0 0 Z " fill="#735744" transform="translate(132,132)"/>
<path d="M0 0 C1.32 0 2.64 0 4 0 C4.66 0.99 5.32 1.98 6 3 C3.36 3.33 0.72 3.66 -2 4 C-1.34 2.68 -0.68 1.36 0 0 Z " fill="#B19081" transform="translate(80,119)"/>
<path d="M0 0 C2.31 0.33 4.62 0.66 7 1 C6.67 1.66 6.34 2.32 6 3 C3.69 3 1.38 3 -1 3 C-0.67 2.01 -0.34 1.02 0 0 Z " fill="#A57F6C" transform="translate(77,82)"/>
<path d="M0 0 C1.32 0 2.64 0 4 0 C4 1.65 4 3.3 4 5 C2.68 4.67 1.36 4.34 0 4 C0 2.68 0 1.36 0 0 Z " fill="#9E7155" transform="translate(104,81)"/>
<path d="M0 0 C0.33 0.66 0.66 1.32 1 2 C1.66 2.33 2.32 2.66 3 3 C3 3.99 3 4.98 3 6 C2.01 6.66 1.02 7.32 0 8 C0 5.36 0 2.72 0 0 Z " fill="#775739" transform="translate(147,71)"/>
<path d="M0 0 C0.66 0 1.32 0 2 0 C1.42647107 3.87132028 -0.48704352 6.08172796 -3 9 C-2.5020163 5.26512223 -2.12508244 3.18762365 0 0 Z " fill="#8B6445" transform="translate(62,61)"/>
</svg>
