<?xml version="1.0" encoding="UTF-8"?>
<svg version="1.1" xmlns="http://www.w3.org/2000/svg" width="557" height="557">
<path d="M0 0 C1.50989502 0.28206299 1.50989502 0.28206299 3.05029297 0.56982422 C44.67891836 8.64376067 84.06387549 25.53720797 118 51 C118.9293335 51.69391846 118.9293335 51.69391846 119.87744141 52.40185547 C128.75333531 59.0747653 137.01593615 66.28773407 145 74 C145.62084473 74.59893066 146.24168945 75.19786133 146.88134766 75.81494141 C154.79337602 83.48931185 162.25229214 91.26495353 169 100 C169.96746601 101.19375008 170.93631352 102.38638134 171.90625 103.578125 C185.20355509 120.15719596 196.08622531 138.7241576 205 158 C205.84884766 159.77117187 205.84884766 159.77117187 206.71484375 161.578125 C216.56649275 182.62698684 222.75561611 205.21826948 227 228 C227.17789063 228.91023926 227.35578125 229.82047852 227.5390625 230.75830078 C233.01472895 259.91296529 232.66588583 293.90994507 227 323 C226.81195801 324.0219043 226.62391602 325.04380859 226.43017578 326.09667969 C217.6652678 372.80101831 197.88770776 416.75634291 167 453 C166.10076639 454.08397548 165.20237351 455.16864879 164.3046875 456.25390625 C154.42161948 468.10689317 143.79482789 479.36506583 131.63671875 488.9140625 C129.85437066 490.32409788 128.10694492 491.77924746 126.39453125 493.2734375 C83.56330368 530.60728608 21.32773736 553.9362949 -35.44921875 554.203125 C-36.42373489 554.20882507 -37.39825104 554.21452515 -38.40229797 554.22039795 C-40.4586989 554.22978908 -42.51511448 554.2363583 -44.5715332 554.24023438 C-47.63456509 554.2498341 -50.6968936 554.2808705 -53.75976562 554.3125 C-71.81891378 554.40966403 -89.52843212 552.53088673 -107.1875 548.6875 C-108.17105469 548.47730225 -109.15460938 548.26710449 -110.16796875 548.05053711 C-119.94708514 545.89639058 -129.50132808 543.15927288 -139 540 C-139.99459229 539.67443115 -139.99459229 539.67443115 -141.00927734 539.34228516 C-167.39635388 530.56009366 -192.77908799 516.6274098 -215 500 C-215.62390625 499.5344873 -216.2478125 499.06897461 -216.890625 498.58935547 C-225.76105085 491.91995142 -234.01993622 484.70716333 -242 477 C-242.63631348 476.38560059 -243.27262695 475.77120117 -243.92822266 475.13818359 C-245.89839 473.22580654 -247.8577773 471.30315318 -249.8125 469.375 C-250.42996094 468.77067139 -251.04742187 468.16634277 -251.68359375 467.54370117 C-253.16213488 466.06790277 -254.58666174 464.53835619 -256 463 C-256 462.34 -256 461.68 -256 461 C-256.66 461 -257.32 461 -258 461 C-261.28390129 457.58566337 -264.10558179 453.74640031 -267 450 C-267.5273877 449.31905273 -268.05477539 448.63810547 -268.59814453 447.93652344 C-277.66904829 436.13778494 -285.65823443 423.94009687 -293 411 C-293.40557129 410.2972998 -293.81114258 409.59459961 -294.22900391 408.87060547 C-309.4450529 382.35885525 -318.22501938 352.84851416 -324 323 C-324.18224121 322.0728418 -324.36448242 321.14568359 -324.55224609 320.19042969 C-329.99307337 290.96696141 -329.39167392 257.20843827 -324 228 C-323.83371094 227.06929687 -323.66742188 226.13859375 -323.49609375 225.1796875 C-318.24362838 196.62183876 -308.50127102 169.63883962 -295 144 C-294.45569336 142.95126709 -294.45569336 142.95126709 -293.90039062 141.88134766 C-284.65795329 124.17197869 -273.33968102 107.86591495 -260 93 C-258.71416016 91.54980469 -258.71416016 91.54980469 -257.40234375 90.0703125 C-246.73028683 78.21945695 -235.64529492 66.7564991 -223 57 C-222.0203125 56.21496094 -221.040625 55.42992187 -220.03125 54.62109375 C-184.92736724 26.68441428 -141.21571196 7.43988465 -97 0 C-96.08653809 -0.16081055 -95.17307617 -0.32162109 -94.23193359 -0.48730469 C-64.13738985 -5.55267124 -30.00463799 -5.70499715 0 0 Z " fill="#D3E4D0" transform="translate(327,3)"/>
<path d="M0 0 C5.27222798 4.33494301 6.66019931 8.08742263 7.4375 14.75 C7.02022058 25.76617663 -1.73423405 33.65274883 -9 41 C-9.55333008 41.56170898 -10.10666016 42.12341797 -10.67675781 42.70214844 C-14.0929087 46.16131897 -17.54152327 49.58221123 -21 53 C-6.15 53.495 -6.15 53.495 9 54 C9 56.64 9 59.28 9 62 C-5.19 62 -19.38 62 -34 62 C-34 55 -34 55 -31.98388672 52.23681641 C-31.05850098 51.36718262 -30.13311523 50.49754883 -29.1796875 49.6015625 C-28.68340851 49.12230316 -28.18712952 48.64304382 -27.67581177 48.14926147 C-26.09132631 46.62353535 -24.48538509 45.1233247 -22.875 43.625 C-12.85136636 34.22730381 -12.85136636 34.22730381 -5 23 C-4.62987793 22.33822754 -4.25975586 21.67645508 -3.87841797 20.99462891 C-2.42510674 17.69458645 -2.37168834 14.4867845 -3 11 C-4.57748508 7.75399923 -4.57748508 7.75399923 -8 6 C-13.68589382 5.08993484 -19.02869848 4.97220488 -24 8.125 C-27 10 -27 10 -29.375 9.5 C-31.31127592 7.71266838 -31.47224255 6.5249572 -32 4 C-30.61133677 3.0106909 -29.21370149 2.03396922 -27.8125 1.0625 C-27.03519531 0.51722656 -26.25789063 -0.02804688 -25.45703125 -0.58984375 C-17.93146486 -4.9089685 -7.34811512 -4.26190677 0 0 Z " fill="#070707" transform="translate(283,250)"/>
<path d="M0 0 C2.64 0 5.28 0 8 0 C8 21.12 8 42.24 8 64 C5.36 64 2.72 64 0 64 C-0.495 37.765 -0.495 37.765 -1 11 C-4.3 13.64 -7.6 16.28 -11 19 C-11.99 19 -12.98 19 -14 19 C-17 15.66666667 -17 15.66666667 -17 13 C-15.54711914 11.68725586 -15.54711914 11.68725586 -13.53515625 10.21484375 C-12.81779297 9.68439453 -12.10042969 9.15394531 -11.36132812 8.60742188 C-10.60271484 8.05634766 -9.84410156 7.50527344 -9.0625 6.9375 C-7.57385356 5.84294442 -6.08555398 4.74791688 -4.59765625 3.65234375 C-3.93258057 3.16757568 -3.26750488 2.68280762 -2.58227539 2.18334961 C-1.04410017 1.09168909 -1.04410017 1.09168909 0 0 Z " fill="#020202" transform="translate(225,248)"/>
<path d="M0 0 C2.31 0 4.62 0 7 0 C7 5.94 7 11.88 7 18 C12.61 18 18.22 18 24 18 C24 20.31 24 22.62 24 25 C18.39 25 12.78 25 7 25 C7 30.94 7 36.88 7 43 C4.69 43 2.38 43 0 43 C0 37.06 0 31.12 0 25 C-5.94 25 -11.88 25 -18 25 C-18 22.69 -18 20.38 -18 18 C-12.06 18 -6.12 18 0 18 C0 12.06 0 6.12 0 0 Z " fill="#090A09" transform="translate(329,259)"/>
</svg>
