<?xml version="1.0" encoding="UTF-8"?>
<svg version="1.1" xmlns="http://www.w3.org/2000/svg" width="557" height="557">
<path d="M0 0 C1.50989502 0.28206299 1.50989502 0.28206299 3.05029297 0.56982422 C44.67891836 8.64376067 84.06387549 25.53720797 118 51 C118.9293335 51.69391846 118.9293335 51.69391846 119.87744141 52.40185547 C128.75333531 59.0747653 137.01593615 66.28773407 145 74 C145.62084473 74.59893066 146.24168945 75.19786133 146.88134766 75.81494141 C154.79337602 83.48931185 162.25229214 91.26495353 169 100 C169.96746601 101.19375008 170.93631352 102.38638134 171.90625 103.578125 C185.20355509 120.15719596 196.08622531 138.7241576 205 158 C205.84884766 159.77117187 205.84884766 159.77117187 206.71484375 161.578125 C216.56649275 182.62698684 222.75561611 205.21826948 227 228 C227.17789063 228.91023926 227.35578125 229.82047852 227.5390625 230.75830078 C233.01472895 259.91296529 232.66588583 293.90994507 227 323 C226.81195801 324.0219043 226.62391602 325.04380859 226.43017578 326.09667969 C217.6652678 372.80101831 197.88770776 416.75634291 167 453 C166.10076639 454.08397548 165.20237351 455.16864879 164.3046875 456.25390625 C154.42161948 468.10689317 143.79482789 479.36506583 131.63671875 488.9140625 C129.85437066 490.32409788 128.10694492 491.77924746 126.39453125 493.2734375 C83.56330368 530.60728608 21.32773736 553.9362949 -35.44921875 554.203125 C-36.42373489 554.20882507 -37.39825104 554.21452515 -38.40229797 554.22039795 C-40.4586989 554.22978908 -42.51511448 554.2363583 -44.5715332 554.24023438 C-47.63456509 554.2498341 -50.6968936 554.2808705 -53.75976562 554.3125 C-71.81891378 554.40966403 -89.52843212 552.53088673 -107.1875 548.6875 C-108.17105469 548.47730225 -109.15460938 548.26710449 -110.16796875 548.05053711 C-119.94708514 545.89639058 -129.50132808 543.15927288 -139 540 C-139.99459229 539.67443115 -139.99459229 539.67443115 -141.00927734 539.34228516 C-167.39635388 530.56009366 -192.77908799 516.6274098 -215 500 C-215.62390625 499.5344873 -216.2478125 499.06897461 -216.890625 498.58935547 C-225.76105085 491.91995142 -234.01993622 484.70716333 -242 477 C-242.63631348 476.38560059 -243.27262695 475.77120117 -243.92822266 475.13818359 C-245.89839 473.22580654 -247.8577773 471.30315318 -249.8125 469.375 C-250.42996094 468.77067139 -251.04742187 468.16634277 -251.68359375 467.54370117 C-253.16213488 466.06790277 -254.58666174 464.53835619 -256 463 C-256 462.34 -256 461.68 -256 461 C-256.66 461 -257.32 461 -258 461 C-261.28390129 457.58566337 -264.10558179 453.74640031 -267 450 C-267.5273877 449.31905273 -268.05477539 448.63810547 -268.59814453 447.93652344 C-277.66904829 436.13778494 -285.65823443 423.94009687 -293 411 C-293.40557129 410.2972998 -293.81114258 409.59459961 -294.22900391 408.87060547 C-309.4450529 382.35885525 -318.22501938 352.84851416 -324 323 C-324.18224121 322.0728418 -324.36448242 321.14568359 -324.55224609 320.19042969 C-329.99307337 290.96696141 -329.39167392 257.20843827 -324 228 C-323.83371094 227.06929687 -323.66742188 226.13859375 -323.49609375 225.1796875 C-318.24362838 196.62183876 -308.50127102 169.63883962 -295 144 C-294.45569336 142.95126709 -294.45569336 142.95126709 -293.90039062 141.88134766 C-284.65795329 124.17197869 -273.33968102 107.86591495 -260 93 C-258.71416016 91.54980469 -258.71416016 91.54980469 -257.40234375 90.0703125 C-246.73028683 78.21945695 -235.64529492 66.7564991 -223 57 C-222.0203125 56.21496094 -221.040625 55.42992187 -220.03125 54.62109375 C-184.92736724 26.68441428 -141.21571196 7.43988465 -97 0 C-96.08653809 -0.16081055 -95.17307617 -0.32162109 -94.23193359 -0.48730469 C-64.13738985 -5.55267124 -30.00463799 -5.70499715 0 0 Z " fill="#C9E3E3" transform="translate(327,3)"/>
<path d="M0 0 C3.43551726 2.17349051 5.90194069 4.41518789 7.72265625 8.08984375 C8.73959051 13.47959535 8.42935219 17.67645186 5.97265625 22.58984375 C3.03880497 25.84967851 0.88979796 27.70079651 -3.27734375 29.08984375 C-2.75785156 29.30898438 -2.23835938 29.528125 -1.703125 29.75390625 C3.33435124 32.04451467 6.85743005 34.16523623 9.72265625 39.08984375 C10.67659738 45.24459851 10.42434044 50.90748588 6.72265625 56.08984375 C0.21460724 62.75284631 -6.59943851 64.25354063 -15.77734375 64.46484375 C-21.89998056 64.3538594 -26.65194507 63.45843267 -32.27734375 61.08984375 C-32.27734375 58.44984375 -32.27734375 55.80984375 -32.27734375 53.08984375 C-31.13652344 53.41339844 -29.99570313 53.73695313 -28.8203125 54.0703125 C-24.36662245 55.17956673 -20.16392568 55.42278201 -15.58984375 55.40234375 C-14.85701172 55.41845703 -14.12417969 55.43457031 -13.36914062 55.45117188 C-8.81109442 55.45528193 -5.90562541 54.88664419 -2.27734375 52.08984375 C0.28885322 48.6682478 0.23249679 45.24140242 -0.27734375 41.08984375 C-2.45008595 38.45968214 -4.22408163 36.61647481 -7.27734375 35.08984375 C-9.98996491 34.85757915 -12.68507501 34.6704814 -15.40234375 34.52734375 C-16.15644531 34.48416016 -16.91054687 34.44097656 -17.6875 34.39648438 C-19.55056263 34.29036055 -21.41392899 34.18959374 -23.27734375 34.08984375 C-23.27734375 31.44984375 -23.27734375 28.80984375 -23.27734375 26.08984375 C-22.33632812 26.0640625 -21.3953125 26.03828125 -20.42578125 26.01171875 C-11.00215521 25.78865503 -11.00215521 25.78865503 -3.27734375 21.08984375 C-1.5355565 17.60626925 -1.7102214 13.89091376 -2.27734375 10.08984375 C-4.41664731 7.16612889 -5.95675556 6.308408 -9.51953125 5.71875 C-15.19513795 5.42701321 -19.35818047 6.59670577 -24.3671875 9.21484375 C-26.27734375 10.08984375 -26.27734375 10.08984375 -29.27734375 10.08984375 C-30.26734375 8.10984375 -31.25734375 6.12984375 -32.27734375 4.08984375 C-30.67443845 3.27485813 -29.06997097 2.46294448 -27.46484375 1.65234375 C-26.57152344 1.19988281 -25.67820313 0.74742187 -24.7578125 0.28125 C-17.44994836 -3.22882648 -7.44536634 -3.43024309 0 0 Z " fill="#070909" transform="translate(259.27734375,248.91015625)"/>
<path d="M0 0 C2.31 0 4.62 0 7 0 C7 5.94 7 11.88 7 18 C12.94 18 18.88 18 25 18 C25 20.31 25 22.62 25 25 C19.06 25 13.12 25 7 25 C7 30.94 7 36.88 7 43 C4.69 43 2.38 43 0 43 C0 37.06 0 31.12 0 25 C-5.94 25 -11.88 25 -18 25 C-18 22.69 -18 20.38 -18 18 C-12.06 18 -6.12 18 0 18 C0 12.06 0 6.12 0 0 Z " fill="#070707" transform="translate(306,259)"/>
</svg>
